<?xml version="1.0" encoding="utf-8" standalone="no"?>
<!DOCTYPE svg PUBLIC "-//W3C//DTD SVG 1.1//EN"
  "http://www.w3.org/Graphics/SVG/1.1/DTD/svg11.dtd">
<svg xmlns:xlink="http://www.w3.org/1999/xlink" width="352.320763pt" height="207.1035pt" viewBox="0 0 352.320763 207.1035" xmlns="http://www.w3.org/2000/svg" version="1.1">
 <metadata>
  <rdf:RDF xmlns:dc="http://purl.org/dc/elements/1.1/" xmlns:cc="http://creativecommons.org/ns#" xmlns:rdf="http://www.w3.org/1999/02/22-rdf-syntax-ns#">
   <cc:Work>
    <dc:type rdf:resource="http://purl.org/dc/dcmitype/StillImage"/>
    <dc:date>2025-09-30T16:36:52.509049</dc:date>
    <dc:format>image/svg+xml</dc:format>
    <dc:creator>
     <cc:Agent>
      <dc:title>Matplotlib v3.9.1, https://matplotlib.org/</dc:title>
     </cc:Agent>
    </dc:creator>
   </cc:Work>
  </rdf:RDF>
 </metadata>
 <defs>
  <style type="text/css">*{stroke-linejoin: round; stroke-linecap: butt}</style>
 </defs>
 <g id="figure_1">
  <g id="patch_1">
   <path d="M 0 207.1035 
L 352.320763 207.1035 
L 352.320763 0 
L 0 0 
z
" style="fill: #ffffff"/>
  </g>
  <g id="axes_1">
   <g id="patch_2">
    <path d="M 70.249375 169.176 
L 338.758263 169.176 
L 338.758263 23.7 
L 70.249375 23.7 
z
" style="fill: #ffffff"/>
   </g>
   <g id="matplotlib.axis_1">
    <g id="xtick_1">
     <g id="line2d_1">
      <defs>
       <path id="m33927c6c88" d="M 0 0 
L 0 -3.5 
" style="stroke: #000000; stroke-width: 0.8"/>
      </defs>
      <g>
       <use xlink:href="#m33927c6c88" x="70.249375" y="169.176" style="stroke: #000000; stroke-width: 0.8"/>
      </g>
     </g>
     <g id="line2d_2">
      <defs>
       <path id="m300ee914ed" d="M 0 0 
L 0 3.5 
" style="stroke: #000000; stroke-width: 0.8"/>
      </defs>
      <g>
       <use xlink:href="#m300ee914ed" x="70.249375" y="23.7" style="stroke: #000000; stroke-width: 0.8"/>
      </g>
     </g>
     <g id="text_1">
      <!-- 0 -->
      <g transform="translate(67.068125 180.274438) scale(0.1 -0.1)">
       <defs>
        <path id="DejaVuSans-30" d="M 2034 4250 
Q 1547 4250 1301 3770 
Q 1056 3291 1056 2328 
Q 1056 1369 1301 889 
Q 1547 409 2034 409 
Q 2525 409 2770 889 
Q 3016 1369 3016 2328 
Q 3016 3291 2770 3770 
Q 2525 4250 2034 4250 
z
M 2034 4750 
Q 2819 4750 3233 4129 
Q 3647 3509 3647 2328 
Q 3647 1150 3233 529 
Q 2819 -91 2034 -91 
Q 1250 -91 836 529 
Q 422 1150 422 2328 
Q 422 3509 836 4129 
Q 1250 4750 2034 4750 
z
" transform="scale(0.015625)"/>
       </defs>
       <use xlink:href="#DejaVuSans-30"/>
      </g>
     </g>
    </g>
    <g id="xtick_2">
     <g id="line2d_3">
      <g>
       <use xlink:href="#m33927c6c88" x="115.000856" y="169.176" style="stroke: #000000; stroke-width: 0.8"/>
      </g>
     </g>
     <g id="line2d_4">
      <g>
       <use xlink:href="#m300ee914ed" x="115.000856" y="23.7" style="stroke: #000000; stroke-width: 0.8"/>
      </g>
     </g>
     <g id="text_2">
      <!-- 5 -->
      <g transform="translate(111.819606 180.274438) scale(0.1 -0.1)">
       <defs>
        <path id="DejaVuSans-35" d="M 691 4666 
L 3169 4666 
L 3169 4134 
L 1269 4134 
L 1269 2991 
Q 1406 3038 1543 3061 
Q 1681 3084 1819 3084 
Q 2600 3084 3056 2656 
Q 3513 2228 3513 1497 
Q 3513 744 3044 326 
Q 2575 -91 1722 -91 
Q 1428 -91 1123 -41 
Q 819 9 494 109 
L 494 744 
Q 775 591 1075 516 
Q 1375 441 1709 441 
Q 2250 441 2565 725 
Q 2881 1009 2881 1497 
Q 2881 1984 2565 2268 
Q 2250 2553 1709 2553 
Q 1456 2553 1204 2497 
Q 953 2441 691 2322 
L 691 4666 
z
" transform="scale(0.015625)"/>
       </defs>
       <use xlink:href="#DejaVuSans-35"/>
      </g>
     </g>
    </g>
    <g id="xtick_3">
     <g id="line2d_5">
      <g>
       <use xlink:href="#m33927c6c88" x="159.752338" y="169.176" style="stroke: #000000; stroke-width: 0.8"/>
      </g>
     </g>
     <g id="line2d_6">
      <g>
       <use xlink:href="#m300ee914ed" x="159.752338" y="23.7" style="stroke: #000000; stroke-width: 0.8"/>
      </g>
     </g>
     <g id="text_3">
      <!-- 10 -->
      <g transform="translate(153.389838 180.274438) scale(0.1 -0.1)">
       <defs>
        <path id="DejaVuSans-31" d="M 794 531 
L 1825 531 
L 1825 4091 
L 703 3866 
L 703 4441 
L 1819 4666 
L 2450 4666 
L 2450 531 
L 3481 531 
L 3481 0 
L 794 0 
L 794 531 
z
" transform="scale(0.015625)"/>
       </defs>
       <use xlink:href="#DejaVuSans-31"/>
       <use xlink:href="#DejaVuSans-30" x="63.623047"/>
      </g>
     </g>
    </g>
    <g id="xtick_4">
     <g id="line2d_7">
      <g>
       <use xlink:href="#m33927c6c88" x="204.503819" y="169.176" style="stroke: #000000; stroke-width: 0.8"/>
      </g>
     </g>
     <g id="line2d_8">
      <g>
       <use xlink:href="#m300ee914ed" x="204.503819" y="23.7" style="stroke: #000000; stroke-width: 0.8"/>
      </g>
     </g>
     <g id="text_4">
      <!-- 15 -->
      <g transform="translate(198.141319 180.274438) scale(0.1 -0.1)">
       <use xlink:href="#DejaVuSans-31"/>
       <use xlink:href="#DejaVuSans-35" x="63.623047"/>
      </g>
     </g>
    </g>
    <g id="xtick_5">
     <g id="line2d_9">
      <g>
       <use xlink:href="#m33927c6c88" x="249.255301" y="169.176" style="stroke: #000000; stroke-width: 0.8"/>
      </g>
     </g>
     <g id="line2d_10">
      <g>
       <use xlink:href="#m300ee914ed" x="249.255301" y="23.7" style="stroke: #000000; stroke-width: 0.8"/>
      </g>
     </g>
     <g id="text_5">
      <!-- 20 -->
      <g transform="translate(242.892801 180.274438) scale(0.1 -0.1)">
       <defs>
        <path id="DejaVuSans-32" d="M 1228 531 
L 3431 531 
L 3431 0 
L 469 0 
L 469 531 
Q 828 903 1448 1529 
Q 2069 2156 2228 2338 
Q 2531 2678 2651 2914 
Q 2772 3150 2772 3378 
Q 2772 3750 2511 3984 
Q 2250 4219 1831 4219 
Q 1534 4219 1204 4116 
Q 875 4013 500 3803 
L 500 4441 
Q 881 4594 1212 4672 
Q 1544 4750 1819 4750 
Q 2544 4750 2975 4387 
Q 3406 4025 3406 3419 
Q 3406 3131 3298 2873 
Q 3191 2616 2906 2266 
Q 2828 2175 2409 1742 
Q 1991 1309 1228 531 
z
" transform="scale(0.015625)"/>
       </defs>
       <use xlink:href="#DejaVuSans-32"/>
       <use xlink:href="#DejaVuSans-30" x="63.623047"/>
      </g>
     </g>
    </g>
    <g id="xtick_6">
     <g id="line2d_11">
      <g>
       <use xlink:href="#m33927c6c88" x="294.006782" y="169.176" style="stroke: #000000; stroke-width: 0.8"/>
      </g>
     </g>
     <g id="line2d_12">
      <g>
       <use xlink:href="#m300ee914ed" x="294.006782" y="23.7" style="stroke: #000000; stroke-width: 0.8"/>
      </g>
     </g>
     <g id="text_6">
      <!-- 25 -->
      <g transform="translate(287.644282 180.274438) scale(0.1 -0.1)">
       <use xlink:href="#DejaVuSans-32"/>
       <use xlink:href="#DejaVuSans-35" x="63.623047"/>
      </g>
     </g>
    </g>
    <g id="xtick_7">
     <g id="line2d_13">
      <g>
       <use xlink:href="#m33927c6c88" x="338.758263" y="169.176" style="stroke: #000000; stroke-width: 0.8"/>
      </g>
     </g>
     <g id="line2d_14">
      <g>
       <use xlink:href="#m300ee914ed" x="338.758263" y="23.7" style="stroke: #000000; stroke-width: 0.8"/>
      </g>
     </g>
     <g id="text_7">
      <!-- 30 -->
      <g transform="translate(332.395763 180.274438) scale(0.1 -0.1)">
       <defs>
        <path id="DejaVuSans-33" d="M 2597 2516 
Q 3050 2419 3304 2112 
Q 3559 1806 3559 1356 
Q 3559 666 3084 287 
Q 2609 -91 1734 -91 
Q 1441 -91 1130 -33 
Q 819 25 488 141 
L 488 750 
Q 750 597 1062 519 
Q 1375 441 1716 441 
Q 2309 441 2620 675 
Q 2931 909 2931 1356 
Q 2931 1769 2642 2001 
Q 2353 2234 1838 2234 
L 1294 2234 
L 1294 2753 
L 1863 2753 
Q 2328 2753 2575 2939 
Q 2822 3125 2822 3475 
Q 2822 3834 2567 4026 
Q 2313 4219 1838 4219 
Q 1578 4219 1281 4162 
Q 984 4106 628 3988 
L 628 4550 
Q 988 4650 1302 4700 
Q 1616 4750 1894 4750 
Q 2613 4750 3031 4423 
Q 3450 4097 3450 3541 
Q 3450 3153 3228 2886 
Q 3006 2619 2597 2516 
z
" transform="scale(0.015625)"/>
       </defs>
       <use xlink:href="#DejaVuSans-33"/>
       <use xlink:href="#DejaVuSans-30" x="63.623047"/>
      </g>
     </g>
    </g>
    <g id="text_8">
     <!-- Time -->
     <g transform="translate(187.376788 196.991938) scale(0.14 -0.14)">
      <defs>
       <path id="DejaVuSans-54" d="M -19 4666 
L 3928 4666 
L 3928 4134 
L 2272 4134 
L 2272 0 
L 1638 0 
L 1638 4134 
L -19 4134 
L -19 4666 
z
" transform="scale(0.015625)"/>
       <path id="DejaVuSans-69" d="M 603 3500 
L 1178 3500 
L 1178 0 
L 603 0 
L 603 3500 
z
M 603 4863 
L 1178 4863 
L 1178 4134 
L 603 4134 
L 603 4863 
z
" transform="scale(0.015625)"/>
       <path id="DejaVuSans-6d" d="M 3328 2828 
Q 3544 3216 3844 3400 
Q 4144 3584 4550 3584 
Q 5097 3584 5394 3201 
Q 5691 2819 5691 2113 
L 5691 0 
L 5113 0 
L 5113 2094 
Q 5113 2597 4934 2840 
Q 4756 3084 4391 3084 
Q 3944 3084 3684 2787 
Q 3425 2491 3425 1978 
L 3425 0 
L 2847 0 
L 2847 2094 
Q 2847 2600 2669 2842 
Q 2491 3084 2119 3084 
Q 1678 3084 1418 2786 
Q 1159 2488 1159 1978 
L 1159 0 
L 581 0 
L 581 3500 
L 1159 3500 
L 1159 2956 
Q 1356 3278 1631 3431 
Q 1906 3584 2284 3584 
Q 2666 3584 2933 3390 
Q 3200 3197 3328 2828 
z
" transform="scale(0.015625)"/>
       <path id="DejaVuSans-65" d="M 3597 1894 
L 3597 1613 
L 953 1613 
Q 991 1019 1311 708 
Q 1631 397 2203 397 
Q 2534 397 2845 478 
Q 3156 559 3463 722 
L 3463 178 
Q 3153 47 2828 -22 
Q 2503 -91 2169 -91 
Q 1331 -91 842 396 
Q 353 884 353 1716 
Q 353 2575 817 3079 
Q 1281 3584 2069 3584 
Q 2775 3584 3186 3129 
Q 3597 2675 3597 1894 
z
M 3022 2063 
Q 3016 2534 2758 2815 
Q 2500 3097 2075 3097 
Q 1594 3097 1305 2825 
Q 1016 2553 972 2059 
L 3022 2063 
z
" transform="scale(0.015625)"/>
      </defs>
      <use xlink:href="#DejaVuSans-54"/>
      <use xlink:href="#DejaVuSans-69" x="57.958984"/>
      <use xlink:href="#DejaVuSans-6d" x="85.742188"/>
      <use xlink:href="#DejaVuSans-65" x="183.154297"/>
     </g>
    </g>
   </g>
   <g id="matplotlib.axis_2">
    <g id="ytick_1">
     <g id="line2d_15">
      <defs>
       <path id="m73a63a94e5" d="M 0 0 
L 3.5 0 
" style="stroke: #000000; stroke-width: 0.8"/>
      </defs>
      <g>
       <use xlink:href="#m73a63a94e5" x="70.249375" y="169.176" style="stroke: #000000; stroke-width: 0.8"/>
      </g>
     </g>
     <g id="line2d_16">
      <defs>
       <path id="mfbb7252405" d="M 0 0 
L -3.5 0 
" style="stroke: #000000; stroke-width: 0.8"/>
      </defs>
      <g>
       <use xlink:href="#mfbb7252405" x="338.758263" y="169.176" style="stroke: #000000; stroke-width: 0.8"/>
      </g>
     </g>
     <g id="text_9">
      <!-- $\mathdefault{10^{-1}}$ -->
      <g transform="translate(43.249375 172.975219) scale(0.1 -0.1)">
       <defs>
        <path id="DejaVuSans-2212" d="M 678 2272 
L 4684 2272 
L 4684 1741 
L 678 1741 
L 678 2272 
z
" transform="scale(0.015625)"/>
       </defs>
       <use xlink:href="#DejaVuSans-31" transform="translate(0 0.684375)"/>
       <use xlink:href="#DejaVuSans-30" transform="translate(63.623047 0.684375)"/>
       <use xlink:href="#DejaVuSans-2212" transform="translate(128.203125 38.965625) scale(0.7)"/>
       <use xlink:href="#DejaVuSans-31" transform="translate(186.855469 38.965625) scale(0.7)"/>
      </g>
     </g>
    </g>
    <g id="ytick_2">
     <g id="line2d_17">
      <g>
       <use xlink:href="#m73a63a94e5" x="70.249375" y="23.7" style="stroke: #000000; stroke-width: 0.8"/>
      </g>
     </g>
     <g id="line2d_18">
      <g>
       <use xlink:href="#mfbb7252405" x="338.758263" y="23.7" style="stroke: #000000; stroke-width: 0.8"/>
      </g>
     </g>
     <g id="text_10">
      <!-- $\mathdefault{10^{0}}$ -->
      <g transform="translate(49.149375 27.499219) scale(0.1 -0.1)">
       <use xlink:href="#DejaVuSans-31" transform="translate(0 0.765625)"/>
       <use xlink:href="#DejaVuSans-30" transform="translate(63.623047 0.765625)"/>
       <use xlink:href="#DejaVuSans-30" transform="translate(128.203125 39.046875) scale(0.7)"/>
      </g>
     </g>
    </g>
    <g id="ytick_3">
     <g id="line2d_19">
      <defs>
       <path id="mff9837a18d" d="M 0 0 
L 2 0 
" style="stroke: #000000; stroke-width: 0.6"/>
      </defs>
      <g>
       <use xlink:href="#mff9837a18d" x="70.249375" y="125.38336" style="stroke: #000000; stroke-width: 0.6"/>
      </g>
     </g>
     <g id="line2d_20">
      <defs>
       <path id="m0f1c180b9a" d="M 0 0 
L -2 0 
" style="stroke: #000000; stroke-width: 0.6"/>
      </defs>
      <g>
       <use xlink:href="#m0f1c180b9a" x="338.758263" y="125.38336" style="stroke: #000000; stroke-width: 0.6"/>
      </g>
     </g>
     <g id="text_11">
      <!-- $\mathdefault{2\times10^{-1}}$ -->
      <g transform="translate(24.749375 129.182579) scale(0.1 -0.1)">
       <defs>
        <path id="DejaVuSans-d7" d="M 4488 3438 
L 3059 2003 
L 4488 575 
L 4116 197 
L 2681 1631 
L 1247 197 
L 878 575 
L 2303 2003 
L 878 3438 
L 1247 3816 
L 2681 2381 
L 4116 3816 
L 4488 3438 
z
" transform="scale(0.015625)"/>
       </defs>
       <use xlink:href="#DejaVuSans-32" transform="translate(0 0.684375)"/>
       <use xlink:href="#DejaVuSans-d7" transform="translate(83.105469 0.684375)"/>
       <use xlink:href="#DejaVuSans-31" transform="translate(186.376953 0.684375)"/>
       <use xlink:href="#DejaVuSans-30" transform="translate(250 0.684375)"/>
       <use xlink:href="#DejaVuSans-2212" transform="translate(314.580078 38.965625) scale(0.7)"/>
       <use xlink:href="#DejaVuSans-31" transform="translate(373.232422 38.965625) scale(0.7)"/>
      </g>
     </g>
    </g>
    <g id="ytick_4">
     <g id="line2d_21">
      <g>
       <use xlink:href="#mff9837a18d" x="70.249375" y="99.766308" style="stroke: #000000; stroke-width: 0.6"/>
      </g>
     </g>
     <g id="line2d_22">
      <g>
       <use xlink:href="#m0f1c180b9a" x="338.758263" y="99.766308" style="stroke: #000000; stroke-width: 0.6"/>
      </g>
     </g>
     <g id="text_12">
      <!-- $\mathdefault{3\times10^{-1}}$ -->
      <g transform="translate(24.749375 103.565527) scale(0.1 -0.1)">
       <use xlink:href="#DejaVuSans-33" transform="translate(0 0.684375)"/>
       <use xlink:href="#DejaVuSans-d7" transform="translate(83.105469 0.684375)"/>
       <use xlink:href="#DejaVuSans-31" transform="translate(186.376953 0.684375)"/>
       <use xlink:href="#DejaVuSans-30" transform="translate(250 0.684375)"/>
       <use xlink:href="#DejaVuSans-2212" transform="translate(314.580078 38.965625) scale(0.7)"/>
       <use xlink:href="#DejaVuSans-31" transform="translate(373.232422 38.965625) scale(0.7)"/>
      </g>
     </g>
    </g>
    <g id="ytick_5">
     <g id="line2d_23">
      <g>
       <use xlink:href="#mff9837a18d" x="70.249375" y="81.590721" style="stroke: #000000; stroke-width: 0.6"/>
      </g>
     </g>
     <g id="line2d_24">
      <g>
       <use xlink:href="#m0f1c180b9a" x="338.758263" y="81.590721" style="stroke: #000000; stroke-width: 0.6"/>
      </g>
     </g>
     <g id="text_13">
      <!-- $\mathdefault{4\times10^{-1}}$ -->
      <g transform="translate(24.749375 85.389939) scale(0.1 -0.1)">
       <defs>
        <path id="DejaVuSans-34" d="M 2419 4116 
L 825 1625 
L 2419 1625 
L 2419 4116 
z
M 2253 4666 
L 3047 4666 
L 3047 1625 
L 3713 1625 
L 3713 1100 
L 3047 1100 
L 3047 0 
L 2419 0 
L 2419 1100 
L 313 1100 
L 313 1709 
L 2253 4666 
z
" transform="scale(0.015625)"/>
       </defs>
       <use xlink:href="#DejaVuSans-34" transform="translate(0 0.684375)"/>
       <use xlink:href="#DejaVuSans-d7" transform="translate(83.105469 0.684375)"/>
       <use xlink:href="#DejaVuSans-31" transform="translate(186.376953 0.684375)"/>
       <use xlink:href="#DejaVuSans-30" transform="translate(250 0.684375)"/>
       <use xlink:href="#DejaVuSans-2212" transform="translate(314.580078 38.965625) scale(0.7)"/>
       <use xlink:href="#DejaVuSans-31" transform="translate(373.232422 38.965625) scale(0.7)"/>
      </g>
     </g>
    </g>
    <g id="ytick_6">
     <g id="line2d_25">
      <g>
       <use xlink:href="#mff9837a18d" x="70.249375" y="67.49264" style="stroke: #000000; stroke-width: 0.6"/>
      </g>
     </g>
     <g id="line2d_26">
      <g>
       <use xlink:href="#m0f1c180b9a" x="338.758263" y="67.49264" style="stroke: #000000; stroke-width: 0.6"/>
      </g>
     </g>
    </g>
    <g id="ytick_7">
     <g id="line2d_27">
      <g>
       <use xlink:href="#mff9837a18d" x="70.249375" y="55.973669" style="stroke: #000000; stroke-width: 0.6"/>
      </g>
     </g>
     <g id="line2d_28">
      <g>
       <use xlink:href="#m0f1c180b9a" x="338.758263" y="55.973669" style="stroke: #000000; stroke-width: 0.6"/>
      </g>
     </g>
     <g id="text_14">
      <!-- $\mathdefault{6\times10^{-1}}$ -->
      <g transform="translate(24.749375 59.772887) scale(0.1 -0.1)">
       <defs>
        <path id="DejaVuSans-36" d="M 2113 2584 
Q 1688 2584 1439 2293 
Q 1191 2003 1191 1497 
Q 1191 994 1439 701 
Q 1688 409 2113 409 
Q 2538 409 2786 701 
Q 3034 994 3034 1497 
Q 3034 2003 2786 2293 
Q 2538 2584 2113 2584 
z
M 3366 4563 
L 3366 3988 
Q 3128 4100 2886 4159 
Q 2644 4219 2406 4219 
Q 1781 4219 1451 3797 
Q 1122 3375 1075 2522 
Q 1259 2794 1537 2939 
Q 1816 3084 2150 3084 
Q 2853 3084 3261 2657 
Q 3669 2231 3669 1497 
Q 3669 778 3244 343 
Q 2819 -91 2113 -91 
Q 1303 -91 875 529 
Q 447 1150 447 2328 
Q 447 3434 972 4092 
Q 1497 4750 2381 4750 
Q 2619 4750 2861 4703 
Q 3103 4656 3366 4563 
z
" transform="scale(0.015625)"/>
       </defs>
       <use xlink:href="#DejaVuSans-36" transform="translate(0 0.684375)"/>
       <use xlink:href="#DejaVuSans-d7" transform="translate(83.105469 0.684375)"/>
       <use xlink:href="#DejaVuSans-31" transform="translate(186.376953 0.684375)"/>
       <use xlink:href="#DejaVuSans-30" transform="translate(250 0.684375)"/>
       <use xlink:href="#DejaVuSans-2212" transform="translate(314.580078 38.965625) scale(0.7)"/>
       <use xlink:href="#DejaVuSans-31" transform="translate(373.232422 38.965625) scale(0.7)"/>
      </g>
     </g>
    </g>
    <g id="ytick_8">
     <g id="line2d_29">
      <g>
       <use xlink:href="#mff9837a18d" x="70.249375" y="46.234518" style="stroke: #000000; stroke-width: 0.6"/>
      </g>
     </g>
     <g id="line2d_30">
      <g>
       <use xlink:href="#m0f1c180b9a" x="338.758263" y="46.234518" style="stroke: #000000; stroke-width: 0.6"/>
      </g>
     </g>
    </g>
    <g id="ytick_9">
     <g id="line2d_31">
      <g>
       <use xlink:href="#mff9837a18d" x="70.249375" y="37.798081" style="stroke: #000000; stroke-width: 0.6"/>
      </g>
     </g>
     <g id="line2d_32">
      <g>
       <use xlink:href="#m0f1c180b9a" x="338.758263" y="37.798081" style="stroke: #000000; stroke-width: 0.6"/>
      </g>
     </g>
    </g>
    <g id="ytick_10">
     <g id="line2d_33">
      <g>
       <use xlink:href="#mff9837a18d" x="70.249375" y="30.356617" style="stroke: #000000; stroke-width: 0.6"/>
      </g>
     </g>
     <g id="line2d_34">
      <g>
       <use xlink:href="#m0f1c180b9a" x="338.758263" y="30.356617" style="stroke: #000000; stroke-width: 0.6"/>
      </g>
     </g>
    </g>
    <g id="text_15">
     <!-- Fidelity -->
     <g transform="translate(17.837813 121.429094) rotate(-90) scale(0.14 -0.14)">
      <defs>
       <path id="DejaVuSans-46" d="M 628 4666 
L 3309 4666 
L 3309 4134 
L 1259 4134 
L 1259 2759 
L 3109 2759 
L 3109 2228 
L 1259 2228 
L 1259 0 
L 628 0 
L 628 4666 
z
" transform="scale(0.015625)"/>
       <path id="DejaVuSans-64" d="M 2906 2969 
L 2906 4863 
L 3481 4863 
L 3481 0 
L 2906 0 
L 2906 525 
Q 2725 213 2448 61 
Q 2172 -91 1784 -91 
Q 1150 -91 751 415 
Q 353 922 353 1747 
Q 353 2572 751 3078 
Q 1150 3584 1784 3584 
Q 2172 3584 2448 3432 
Q 2725 3281 2906 2969 
z
M 947 1747 
Q 947 1113 1208 752 
Q 1469 391 1925 391 
Q 2381 391 2643 752 
Q 2906 1113 2906 1747 
Q 2906 2381 2643 2742 
Q 2381 3103 1925 3103 
Q 1469 3103 1208 2742 
Q 947 2381 947 1747 
z
" transform="scale(0.015625)"/>
       <path id="DejaVuSans-6c" d="M 603 4863 
L 1178 4863 
L 1178 0 
L 603 0 
L 603 4863 
z
" transform="scale(0.015625)"/>
       <path id="DejaVuSans-74" d="M 1172 4494 
L 1172 3500 
L 2356 3500 
L 2356 3053 
L 1172 3053 
L 1172 1153 
Q 1172 725 1289 603 
Q 1406 481 1766 481 
L 2356 481 
L 2356 0 
L 1766 0 
Q 1100 0 847 248 
Q 594 497 594 1153 
L 594 3053 
L 172 3053 
L 172 3500 
L 594 3500 
L 594 4494 
L 1172 4494 
z
" transform="scale(0.015625)"/>
       <path id="DejaVuSans-79" d="M 2059 -325 
Q 1816 -950 1584 -1140 
Q 1353 -1331 966 -1331 
L 506 -1331 
L 506 -850 
L 844 -850 
Q 1081 -850 1212 -737 
Q 1344 -625 1503 -206 
L 1606 56 
L 191 3500 
L 800 3500 
L 1894 763 
L 2988 3500 
L 3597 3500 
L 2059 -325 
z
" transform="scale(0.015625)"/>
      </defs>
      <use xlink:href="#DejaVuSans-46"/>
      <use xlink:href="#DejaVuSans-69" x="50.269531"/>
      <use xlink:href="#DejaVuSans-64" x="78.052734"/>
      <use xlink:href="#DejaVuSans-65" x="141.529297"/>
      <use xlink:href="#DejaVuSans-6c" x="203.052734"/>
      <use xlink:href="#DejaVuSans-69" x="230.835938"/>
      <use xlink:href="#DejaVuSans-74" x="258.619141"/>
      <use xlink:href="#DejaVuSans-79" x="297.828125"/>
     </g>
    </g>
   </g>
   <g id="line2d_35">
    <path d="M 70.249375 23.7 
L 72.039434 31.426477 
L 72.934464 28.193126 
L 73.829494 25.54817 
L 74.724523 27.198713 
L 75.619553 29.383327 
L 76.514582 28.530356 
L 77.409612 27.521132 
L 78.304642 27.904397 
L 79.199671 28.122073 
L 80.094701 28.188377 
L 80.989731 28.397575 
L 82.77979 28.180645 
L 84.569849 28.455449 
L 86.359908 28.390157 
L 87.254938 28.544884 
L 88.149968 28.8441 
L 89.044997 28.718935 
L 89.940027 28.255634 
L 90.835056 28.618735 
L 91.730086 29.298013 
L 94.415175 28.625702 
L 95.310205 28.818334 
L 96.205234 29.183729 
L 97.995293 29.559013 
L 98.890323 28.445505 
L 99.785353 28.098158 
L 100.680382 29.52277 
L 101.575412 30.105662 
L 102.470442 29.351813 
L 103.365471 28.114281 
L 104.260501 28.171489 
L 105.155531 29.891159 
L 106.05056 30.822771 
L 107.840619 27.62115 
L 109.630679 31.412627 
L 110.525708 30.112654 
L 111.420738 28.498242 
L 112.315768 29.573364 
L 113.210797 31.044227 
L 114.105827 30.653696 
L 115.000856 30.019717 
L 115.895886 30.035151 
L 116.790916 30.171632 
L 117.685945 31.106567 
L 118.580975 31.433189 
L 119.476005 29.997726 
L 120.371034 30.197115 
L 121.266064 31.881202 
L 122.161093 31.584536 
L 123.056123 30.175691 
L 123.951153 30.711839 
L 124.846182 32.638446 
L 125.741212 32.164892 
L 126.636242 30.638816 
L 127.531271 31.412913 
L 128.426301 32.590865 
L 130.21636 32.268638 
L 131.11139 32.622363 
L 132.006419 32.46452 
L 132.901449 32.159185 
L 134.691508 34.074381 
L 135.586538 33.61193 
L 136.481567 32.368206 
L 137.376597 32.854392 
L 138.271627 34.729011 
L 139.166656 34.985991 
L 140.061686 33.781192 
L 140.956716 33.425948 
L 142.746775 35.582742 
L 143.641805 35.469151 
L 144.536834 34.98871 
L 145.431864 34.746091 
L 146.326893 35.257295 
L 147.221923 36.783009 
L 148.116953 36.436263 
L 149.011982 34.944309 
L 150.802042 37.035467 
L 151.697071 36.27686 
L 152.592101 35.879758 
L 153.48713 36.712017 
L 154.38216 37.126668 
L 155.27719 36.344123 
L 156.172219 36.239557 
L 158.857308 37.460579 
L 159.752338 37.243438 
L 160.647367 36.334245 
L 161.542397 36.662044 
L 162.437427 38.181954 
L 163.332456 38.338995 
L 164.227486 37.612055 
L 165.122516 37.599536 
L 166.017545 37.871412 
L 167.807604 39.594131 
L 168.702634 39.39311 
L 169.597664 38.46178 
L 170.492693 38.68596 
L 171.387723 40.38657 
L 172.282753 40.923067 
L 173.177782 39.756925 
L 174.072812 39.551732 
L 174.967842 40.396033 
L 175.862871 41.032694 
L 176.757901 41.311687 
L 177.65293 40.784892 
L 178.54796 40.548617 
L 180.338019 41.883759 
L 181.233049 42.067016 
L 182.128079 41.876851 
L 183.023108 41.935847 
L 184.813167 43.094245 
L 186.603227 43.202805 
L 187.498256 44.073178 
L 188.393286 44.362541 
L 189.288316 43.726555 
L 190.183345 43.849591 
L 191.078375 45.445569 
L 191.973404 45.954532 
L 192.868434 44.537148 
L 193.763464 44.626393 
L 194.658493 46.004153 
L 195.553523 46.154871 
L 196.448553 46.020791 
L 197.343582 46.356753 
L 198.238612 46.360099 
L 199.133641 46.493814 
L 200.028671 47.396538 
L 200.923701 47.96502 
L 201.81873 47.698889 
L 202.71376 47.787814 
L 203.60879 48.481681 
L 206.293878 49.873388 
L 207.188908 49.231691 
L 208.083938 49.149123 
L 208.978967 50.547659 
L 209.873997 51.483784 
L 211.664056 49.611871 
L 212.559086 50.388222 
L 213.454116 51.642474 
L 214.349145 51.855207 
L 215.244175 51.282951 
L 216.139204 51.149643 
L 217.034234 51.666567 
L 217.929264 52.401341 
L 218.824293 52.72318 
L 219.719323 52.738985 
L 220.614353 53.401938 
L 221.509382 53.741226 
L 222.404412 53.393447 
L 223.299441 53.938416 
L 224.194471 54.949557 
L 225.089501 55.224503 
L 225.98453 55.16345 
L 226.87956 54.950489 
L 227.77459 54.991117 
L 228.669619 56.039515 
L 229.564649 56.818953 
L 231.354708 55.505458 
L 232.249738 56.139416 
L 233.144767 57.371167 
L 234.039797 57.639796 
L 234.934827 57.096922 
L 235.829856 56.899576 
L 236.724886 57.509977 
L 237.619915 58.595571 
L 238.514945 58.9967 
L 239.409975 58.602157 
L 240.305004 58.830126 
L 241.200034 59.351942 
L 242.095064 59.4372 
L 243.885123 61.351873 
L 244.780153 60.560002 
L 245.675182 59.590331 
L 246.570212 60.857925 
L 247.465241 62.773772 
L 248.360271 62.146248 
L 249.255301 60.898665 
L 250.15033 61.602317 
L 251.04536 62.659776 
L 252.835419 62.676985 
L 253.730449 62.968144 
L 254.625478 63.111576 
L 255.520508 63.507047 
L 257.310567 63.881018 
L 258.205597 64.794924 
L 259.100627 65.249139 
L 259.995656 64.722562 
L 260.890686 64.984694 
L 261.785715 66.433332 
L 262.680745 67.05343 
L 263.575775 66.429108 
L 264.470804 66.540658 
L 265.365834 67.492008 
L 266.260864 67.895998 
L 267.155893 68.430323 
L 268.050923 68.609997 
L 268.945952 67.994503 
L 269.840982 68.408268 
L 270.736012 69.491461 
L 271.631041 69.871866 
L 274.31613 69.698778 
L 275.21116 70.62687 
L 276.106189 71.737904 
L 277.001219 71.605739 
L 277.896249 71.288405 
L 279.686308 72.706962 
L 280.581338 72.832102 
L 281.476367 73.663802 
L 282.371397 74.305573 
L 283.266427 73.378277 
L 284.161456 73.421842 
L 285.056486 75.206837 
L 285.951515 75.397865 
L 286.846545 74.295581 
L 287.741575 74.517187 
L 288.636604 75.401874 
L 289.531634 75.811059 
L 291.321693 75.756021 
L 292.216723 76.054983 
L 294.006782 77.384913 
L 294.901812 77.578056 
L 295.796841 77.953297 
L 296.691871 79.12174 
L 297.586901 79.01899 
L 298.48193 78.686091 
L 299.37696 80.462984 
L 300.271989 81.754726 
L 301.167019 80.697858 
L 302.062049 80.450573 
L 302.957078 81.719738 
L 303.852108 82.045031 
L 304.747138 82.075583 
L 305.642167 82.683004 
L 306.537197 82.519459 
L 307.432226 81.810018 
L 308.327256 82.307435 
L 309.222286 83.737939 
L 310.117315 83.849973 
L 311.012345 83.126328 
L 311.907375 83.34226 
L 312.802404 83.983037 
L 313.697434 84.871816 
L 314.592464 85.570922 
L 315.487493 85.088799 
L 316.382523 85.153271 
L 317.277552 86.33299 
L 318.172582 86.858036 
L 319.067612 86.885511 
L 320.857671 87.248269 
L 321.752701 87.549215 
L 323.54276 88.607608 
L 324.437789 88.069632 
L 325.332819 88.162979 
L 326.227849 89.233218 
L 327.122878 89.128845 
L 328.017908 88.847576 
L 328.912938 90.026616 
L 329.807967 90.626586 
L 330.702997 89.784473 
L 331.598026 90.125071 
L 332.493056 91.201774 
L 334.283115 92.480222 
L 336.073175 91.608025 
L 337.863234 94.423555 
L 338.758263 94.000005 
L 338.758263 94.000005 
" clip-path="url(#p2254faefbf)" style="fill: none; stroke: #000000; stroke-width: 1.5; stroke-linecap: square"/>
   </g>
   <g id="line2d_36">
    <path d="M 70.249375 23.7 
L 72.039434 30.501112 
L 72.934464 27.69292 
L 73.829494 25.414364 
L 74.724523 26.865642 
L 75.619553 28.706555 
L 76.514582 28.186749 
L 77.409612 27.473965 
L 80.094701 28.041558 
L 80.989731 28.414115 
L 82.77979 28.073237 
L 84.569849 28.340026 
L 87.254938 28.475615 
L 88.149968 28.383149 
L 92.625116 28.869875 
L 95.310205 29.175116 
L 96.205234 29.470555 
L 97.995293 29.770581 
L 98.890323 29.563935 
L 99.785353 29.538498 
L 100.680382 30.338789 
L 101.575412 30.691723 
L 103.365471 30.157914 
L 104.260501 30.223028 
L 105.155531 31.065024 
L 106.05056 31.635233 
L 107.840619 30.283301 
L 109.630679 32.41765 
L 110.525708 31.573299 
L 111.420738 30.483805 
L 112.315768 31.51064 
L 113.210797 32.936092 
L 114.105827 32.317859 
L 115.000856 31.261904 
L 115.895886 31.749809 
L 116.790916 32.797527 
L 117.685945 33.163994 
L 119.476005 32.179196 
L 120.371034 33.03855 
L 121.266064 34.247799 
L 122.161093 33.802539 
L 123.056123 32.916206 
L 123.951153 33.830568 
L 124.846182 35.389811 
L 125.741212 35.140349 
L 126.636242 34.128756 
L 127.531271 34.816564 
L 128.426301 36.113706 
L 130.21636 35.742694 
L 131.11139 36.438196 
L 132.006419 36.605291 
L 132.901449 36.22569 
L 133.796479 36.88918 
L 134.691508 37.796028 
L 135.586538 37.659869 
L 136.481567 37.04366 
L 137.376597 37.200084 
L 138.271627 38.229805 
L 139.166656 38.819855 
L 140.061686 38.513677 
L 140.956716 37.976816 
L 141.851745 38.297429 
L 142.746775 39.296963 
L 143.641805 39.777701 
L 144.536834 39.552706 
L 145.431864 39.153097 
L 146.326893 39.516178 
L 147.221923 40.888225 
L 148.116953 41.219997 
L 149.011982 40.423112 
L 149.907012 40.903736 
L 150.802042 42.086791 
L 151.697071 42.458253 
L 152.592101 42.41032 
L 153.48713 42.901225 
L 154.38216 43.79347 
L 155.27719 44.135659 
L 156.172219 44.236929 
L 157.067249 44.777296 
L 157.962279 45.63661 
L 158.857308 46.197794 
L 160.647367 46.142253 
L 161.542397 46.840781 
L 162.437427 47.860841 
L 163.332456 47.782634 
L 164.227486 47.571819 
L 166.017545 48.884368 
L 166.912575 48.875709 
L 167.807604 49.198197 
L 168.702634 50.150011 
L 169.597664 50.534422 
L 170.492693 50.464223 
L 171.387723 51.220022 
L 172.282753 52.237759 
L 174.072812 53.164399 
L 174.967842 53.852521 
L 175.862871 54.339886 
L 176.757901 55.045361 
L 177.65293 56.014011 
L 178.54796 56.532533 
L 179.44299 56.654396 
L 180.338019 57.17511 
L 181.233049 58.18454 
L 182.128079 58.602157 
L 183.023108 58.750194 
L 184.813167 59.905777 
L 185.708197 60.098816 
L 186.603227 60.139632 
L 187.498256 60.858038 
L 188.393286 61.827298 
L 189.288316 61.790227 
L 190.183345 61.344535 
L 191.078375 61.724222 
L 191.973404 62.828676 
L 192.868434 63.370765 
L 194.658493 62.917703 
L 195.553523 63.418963 
L 196.448553 64.584359 
L 197.343582 64.884221 
L 198.238612 64.762363 
L 199.133641 65.184173 
L 200.028671 65.980671 
L 201.81873 67.225954 
L 202.71376 68.154679 
L 204.503819 68.464831 
L 206.293878 71.475465 
L 207.188908 71.539423 
L 208.083938 71.05509 
L 208.978967 72.032657 
L 209.873997 74.087932 
L 210.769027 75.007277 
L 211.664056 74.35753 
L 212.559086 74.282495 
L 214.349145 77.236719 
L 215.244175 77.83933 
L 216.139204 77.557603 
L 217.034234 77.687098 
L 217.929264 78.835611 
L 218.824293 80.227744 
L 219.719323 80.888138 
L 220.614353 81.045786 
L 221.509382 81.459759 
L 222.404412 82.496863 
L 223.299441 83.937613 
L 224.194471 84.53896 
L 225.089501 84.799487 
L 226.87956 87.467517 
L 228.669619 88.754452 
L 229.564649 90.08025 
L 230.459678 91.66339 
L 231.354708 92.450392 
L 232.249738 92.865911 
L 233.144767 94.015001 
L 234.039797 95.784631 
L 234.934827 96.735743 
L 235.829856 96.735944 
L 236.724886 97.197106 
L 237.619915 98.551539 
L 238.514945 99.506754 
L 239.409975 99.672241 
L 241.200034 100.393625 
L 242.095064 100.35195 
L 242.990093 101.001242 
L 243.885123 102.417414 
L 244.780153 102.614944 
L 245.675182 101.694395 
L 246.570212 102.500706 
L 247.465241 104.59655 
L 248.360271 104.821097 
L 249.255301 104.504322 
L 251.04536 107.567893 
L 251.94039 107.731085 
L 252.835419 108.679407 
L 253.730449 110.258536 
L 254.625478 110.991044 
L 255.520508 111.913107 
L 256.415538 113.661751 
L 257.310567 114.203836 
L 258.205597 114.379023 
L 259.100627 116.673712 
L 259.995656 118.510535 
L 260.890686 117.808938 
L 261.785715 118.464368 
L 262.680745 121.313949 
L 263.575775 122.606027 
L 264.470804 122.451131 
L 265.365834 123.582747 
L 266.260864 124.928844 
L 267.155893 125.825581 
L 268.050923 127.754846 
L 268.945952 129.022661 
L 269.840982 128.702565 
L 270.736012 129.078904 
L 271.631041 131.583927 
L 272.526071 133.610748 
L 273.421101 133.251221 
L 274.31613 133.419607 
L 276.106189 137.328584 
L 277.001219 138.256653 
L 277.896249 139.365062 
L 278.791278 141.033234 
L 279.686308 142.151932 
L 280.581338 143.818093 
L 281.476367 146.425211 
L 282.371397 148.157964 
L 283.266427 148.830613 
L 284.161456 150.20527 
L 285.056486 153.436543 
L 285.951515 155.713914 
L 286.846545 155.3484 
L 287.741575 156.288848 
L 288.636604 158.949006 
L 289.531634 160.819615 
L 290.426664 161.454919 
L 291.321693 161.635772 
L 292.216723 162.246533 
L 293.111752 163.35167 
L 294.006782 164.785741 
L 294.901812 165.370156 
L 295.796841 165.7592 
L 296.691871 166.673156 
L 297.586901 167.040396 
L 298.48193 167.129635 
L 299.37696 168.681351 
L 300.271989 171.354928 
L 301.167019 171.733396 
L 302.062049 170.864402 
L 302.957078 172.617178 
L 303.852108 175.867726 
L 304.747138 177.098268 
L 305.642167 177.856237 
L 306.537197 180.015041 
L 308.327256 183.349942 
L 309.222286 186.126903 
L 310.117315 188.284227 
L 311.012345 189.137184 
L 311.907375 191.207093 
L 312.802404 194.379007 
L 314.592464 197.014829 
L 315.487493 199.114649 
L 318.172582 203.760617 
L 319.067612 205.849227 
L 319.962641 207.215217 
L 320.857671 207.55761 
L 321.211078 208.1035 
L 321.211078 208.1035 
" clip-path="url(#p2254faefbf)" style="fill: none; stroke: #ff0000; stroke-width: 1.5; stroke-linecap: square"/>
   </g>
   <g id="line2d_37">
    <path d="M 70.249375 23.7 
L 72.039434 30.480711 
L 72.934464 27.654166 
L 73.829494 25.339558 
L 74.724523 26.830711 
L 75.619553 28.704572 
L 76.514582 28.047446 
L 77.409612 27.21414 
L 79.199671 27.771037 
L 80.989731 28.276959 
L 82.77979 28.13156 
L 85.464879 28.84691 
L 87.254938 29.001661 
L 89.044997 29.613313 
L 89.940027 29.381253 
L 90.835056 29.519514 
L 91.730086 30.130768 
L 92.625116 30.242926 
L 94.415175 30.300763 
L 95.310205 30.468825 
L 97.100264 31.224315 
L 97.995293 31.702031 
L 99.785353 31.065947 
L 101.575412 32.941796 
L 102.470442 33.133618 
L 103.365471 32.306709 
L 104.260501 32.108644 
L 105.155531 33.585993 
L 106.05056 34.812044 
L 106.94559 33.936865 
L 107.840619 32.883684 
L 108.735649 34.087412 
L 109.630679 35.67645 
L 110.525708 35.154359 
L 111.420738 34.183774 
L 112.315768 34.932609 
L 113.210797 36.074731 
L 115.000856 35.746899 
L 115.895886 36.292975 
L 116.790916 36.670888 
L 117.685945 36.891827 
L 118.580975 37.241716 
L 119.476005 37.388979 
L 121.266064 38.899766 
L 122.161093 38.529653 
L 123.056123 38.450289 
L 124.846182 41.016321 
L 125.741212 40.741935 
L 126.636242 40.09647 
L 128.426301 42.805149 
L 129.32133 42.691723 
L 130.21636 42.856292 
L 131.11139 43.978875 
L 132.006419 44.514395 
L 132.901449 44.50974 
L 133.796479 45.472494 
L 134.691508 46.710604 
L 135.586538 46.95324 
L 136.481567 46.773656 
L 137.376597 47.49489 
L 138.271627 48.881356 
L 139.166656 49.52291 
L 140.061686 49.5096 
L 140.956716 49.757427 
L 141.851745 50.607406 
L 142.746775 51.723445 
L 143.641805 52.463367 
L 145.431864 52.913 
L 146.326893 53.652452 
L 147.221923 55.313431 
L 148.116953 56.126959 
L 149.011982 55.714743 
L 149.907012 56.577805 
L 150.802042 58.241925 
L 151.697071 58.666956 
L 152.592101 58.757676 
L 153.48713 59.770105 
L 154.38216 61.142516 
L 155.27719 61.711075 
L 156.172219 61.718686 
L 157.067249 62.136728 
L 157.962279 63.462338 
L 158.857308 65.186487 
L 159.752338 65.442849 
L 160.647367 64.889799 
L 161.542397 65.693623 
L 162.437427 67.706548 
L 163.332456 68.82889 
L 164.227486 68.85729 
L 165.122516 69.376274 
L 166.017545 69.757295 
L 166.912575 70.716032 
L 167.807604 72.691183 
L 168.702634 73.363161 
L 169.597664 72.632353 
L 170.492693 72.845304 
L 171.387723 75.021652 
L 172.282753 76.787186 
L 174.072812 76.21087 
L 174.967842 77.479412 
L 175.862871 79.433132 
L 176.757901 80.978487 
L 177.65293 81.372182 
L 178.54796 81.570191 
L 179.44299 83.038998 
L 180.338019 85.108167 
L 181.233049 86.675459 
L 182.128079 87.709798 
L 183.023108 88.439801 
L 183.918138 89.518182 
L 185.708197 93.448609 
L 186.603227 93.981169 
L 187.498256 94.903369 
L 188.393286 97.115467 
L 189.288316 98.502803 
L 190.183345 98.826692 
L 191.078375 100.409792 
L 191.973404 102.985933 
L 192.868434 103.922262 
L 193.763464 104.382314 
L 195.553523 108.064263 
L 197.343582 111.326486 
L 198.238612 112.147598 
L 199.133641 113.361487 
L 200.923701 117.394473 
L 201.81873 118.550498 
L 202.71376 119.35339 
L 203.60879 120.668597 
L 204.503819 122.286687 
L 206.293878 126.273802 
L 207.188908 126.897771 
L 208.083938 127.28594 
L 208.978967 129.525933 
L 209.873997 132.186864 
L 210.769027 133.707618 
L 212.559086 135.563937 
L 213.454116 136.861657 
L 215.244175 141.968893 
L 216.139204 142.401222 
L 217.034234 142.212925 
L 217.929264 144.236482 
L 218.824293 147.223574 
L 219.719323 148.170196 
L 220.614353 148.650934 
L 221.509382 150.435906 
L 223.299441 153.118224 
L 224.194471 155.389021 
L 225.089501 157.316778 
L 227.77459 161.600457 
L 228.669619 164.404971 
L 229.564649 167.601143 
L 230.459678 169.092658 
L 231.354708 169.932984 
L 232.249738 172.021551 
L 234.039797 179.468386 
L 234.934827 180.833359 
L 235.829856 181.417308 
L 236.724886 184.310785 
L 237.619915 189.560605 
L 238.514945 192.93812 
L 239.409975 192.9731 
L 240.305004 195.431856 
L 241.200034 201.081146 
L 242.095064 203.27102 
L 242.990093 204.208921 
L 243.70099 208.1035 
M 297.29369 208.1035 
L 297.586901 206.394589 
L 298.48193 202.989862 
L 299.37696 203.866651 
L 300.271989 202.142105 
L 301.167019 197.296195 
L 302.062049 194.958799 
L 302.957078 194.21352 
L 303.852108 192.566505 
L 306.537197 186.73878 
L 307.432226 184.137616 
L 308.327256 183.409272 
L 309.222286 183.474203 
L 310.117315 180.53848 
L 311.012345 177.084662 
L 311.907375 176.480356 
L 312.802404 176.137313 
L 313.697434 174.328736 
L 315.487493 169.666911 
L 316.382523 168.068747 
L 317.277552 167.479861 
L 318.172582 167.140034 
L 319.067612 165.324368 
L 319.962641 161.894793 
L 320.857671 160.74991 
L 321.752701 162.034013 
L 322.64773 161.513654 
L 323.54276 159.013524 
L 324.437789 156.927325 
L 325.332819 156.90599 
L 326.227849 157.567062 
L 327.122878 156.289363 
L 328.017908 154.546421 
L 328.912938 153.749051 
L 329.807967 152.697738 
L 330.702997 151.96699 
L 331.598026 151.506288 
L 333.388086 147.910207 
L 334.283115 147.424304 
L 335.178145 145.901141 
L 336.073175 143.952727 
L 336.968204 143.295828 
L 337.863234 142.36732 
L 338.758263 140.137958 
L 338.758263 140.137958 
" clip-path="url(#p2254faefbf)" style="fill: none; stroke: #0000ff; stroke-width: 1.5; stroke-linecap: square"/>
   </g>
   <g id="patch_3">
    <path d="M 70.249375 169.176 
L 70.249375 23.7 
" style="fill: none; stroke: #000000; stroke-width: 0.8; stroke-linejoin: miter; stroke-linecap: square"/>
   </g>
   <g id="patch_4">
    <path d="M 338.758263 169.176 
L 338.758263 23.7 
" style="fill: none; stroke: #000000; stroke-width: 0.8; stroke-linejoin: miter; stroke-linecap: square"/>
   </g>
   <g id="patch_5">
    <path d="M 70.249375 169.176 
L 338.758263 169.176 
" style="fill: none; stroke: #000000; stroke-width: 0.8; stroke-linejoin: miter; stroke-linecap: square"/>
   </g>
   <g id="patch_6">
    <path d="M 70.249375 23.7 
L 338.758263 23.7 
" style="fill: none; stroke: #000000; stroke-width: 0.8; stroke-linejoin: miter; stroke-linecap: square"/>
   </g>
   <g id="text_16">
    <!-- $N=10, \alpha=0, J_z=1,\, J_{long}=3.0$ -->
    <g transform="translate(101.743819 17.7) scale(0.14 -0.14)">
     <defs>
      <path id="DejaVuSans-Oblique-4e" d="M 1081 4666 
L 1931 4666 
L 3219 666 
L 4000 4666 
L 4616 4666 
L 3706 0 
L 2853 0 
L 1569 4025 
L 788 0 
L 172 0 
L 1081 4666 
z
" transform="scale(0.015625)"/>
      <path id="DejaVuSans-3d" d="M 678 2906 
L 4684 2906 
L 4684 2381 
L 678 2381 
L 678 2906 
z
M 678 1631 
L 4684 1631 
L 4684 1100 
L 678 1100 
L 678 1631 
z
" transform="scale(0.015625)"/>
      <path id="DejaVuSans-2c" d="M 750 794 
L 1409 794 
L 1409 256 
L 897 -744 
L 494 -744 
L 750 256 
L 750 794 
z
" transform="scale(0.015625)"/>
      <path id="DejaVuSans-Oblique-3b1" d="M 2619 1628 
L 2622 2350 
Q 2625 3088 2069 3091 
Q 1653 3094 1394 2747 
Q 1069 2319 959 1747 
Q 825 1059 994 731 
Q 1169 397 1547 397 
Q 1966 397 2319 1063 
L 2619 1628 
z
M 2166 3578 
Q 3141 3594 3128 2584 
Q 3128 2584 3616 3500 
L 4128 3500 
L 3119 1603 
L 3109 919 
Q 3109 766 3194 638 
Q 3291 488 3391 488 
L 3669 488 
L 3575 0 
L 3228 0 
Q 2934 0 2722 263 
Q 2622 394 2619 669 
Q 2416 334 2066 50 
Q 1900 -81 1453 -78 
Q 722 -72 456 397 
Q 184 884 353 1747 
Q 534 2675 1009 3097 
Q 1544 3569 2166 3578 
z
" transform="scale(0.015625)"/>
      <path id="DejaVuSans-Oblique-4a" d="M 1069 4666 
L 1703 4666 
L 856 325 
Q 691 -522 298 -901 
Q -94 -1281 -800 -1281 
L -1050 -1281 
L -947 -750 
L -750 -750 
Q -328 -750 -109 -509 
Q 109 -269 225 325 
L 1069 4666 
z
" transform="scale(0.015625)"/>
      <path id="DejaVuSans-Oblique-7a" d="M 744 3500 
L 3475 3500 
L 3372 2975 
L 738 459 
L 2913 459 
L 2822 0 
L -19 0 
L 84 525 
L 2719 3041 
L 653 3041 
L 744 3500 
z
" transform="scale(0.015625)"/>
      <path id="DejaVuSans-Oblique-6c" d="M 1172 4863 
L 1747 4863 
L 800 0 
L 225 0 
L 1172 4863 
z
" transform="scale(0.015625)"/>
      <path id="DejaVuSans-Oblique-6f" d="M 1625 -91 
Q 1009 -91 651 289 
Q 294 669 294 1325 
Q 294 1706 417 2101 
Q 541 2497 738 2766 
Q 1047 3184 1428 3384 
Q 1809 3584 2291 3584 
Q 2888 3584 3255 3212 
Q 3622 2841 3622 2241 
Q 3622 1825 3500 1412 
Q 3378 1000 3181 728 
Q 2875 309 2494 109 
Q 2113 -91 1625 -91 
z
M 891 1344 
Q 891 869 1089 633 
Q 1288 397 1691 397 
Q 2269 397 2648 901 
Q 3028 1406 3028 2181 
Q 3028 2634 2825 2865 
Q 2622 3097 2228 3097 
Q 1903 3097 1650 2945 
Q 1397 2794 1197 2484 
Q 1050 2253 970 1956 
Q 891 1659 891 1344 
z
" transform="scale(0.015625)"/>
      <path id="DejaVuSans-Oblique-6e" d="M 3566 2113 
L 3156 0 
L 2578 0 
L 2988 2091 
Q 3016 2238 3031 2350 
Q 3047 2463 3047 2528 
Q 3047 2791 2881 2937 
Q 2716 3084 2419 3084 
Q 1956 3084 1622 2776 
Q 1288 2469 1184 1941 
L 800 0 
L 225 0 
L 903 3500 
L 1478 3500 
L 1363 2950 
Q 1603 3253 1940 3418 
Q 2278 3584 2650 3584 
Q 3113 3584 3367 3334 
Q 3622 3084 3622 2631 
Q 3622 2519 3608 2391 
Q 3594 2263 3566 2113 
z
" transform="scale(0.015625)"/>
      <path id="DejaVuSans-Oblique-67" d="M 3816 3500 
L 3219 434 
Q 3047 -456 2561 -893 
Q 2075 -1331 1253 -1331 
Q 950 -1331 690 -1286 
Q 431 -1241 206 -1147 
L 313 -588 
Q 525 -725 762 -790 
Q 1000 -856 1269 -856 
Q 1816 -856 2167 -557 
Q 2519 -259 2631 300 
L 2681 563 
Q 2441 288 2122 144 
Q 1803 0 1434 0 
Q 903 0 598 351 
Q 294 703 294 1319 
Q 294 1803 478 2267 
Q 663 2731 997 3091 
Q 1219 3328 1514 3456 
Q 1809 3584 2131 3584 
Q 2484 3584 2746 3420 
Q 3009 3256 3138 2956 
L 3238 3500 
L 3816 3500 
z
M 2950 2216 
Q 2950 2641 2750 2872 
Q 2550 3103 2181 3103 
Q 1953 3103 1747 3012 
Q 1541 2922 1394 2759 
Q 1156 2491 1023 2127 
Q 891 1763 891 1375 
Q 891 944 1092 712 
Q 1294 481 1672 481 
Q 2219 481 2584 976 
Q 2950 1472 2950 2216 
z
" transform="scale(0.015625)"/>
      <path id="DejaVuSans-2e" d="M 684 794 
L 1344 794 
L 1344 0 
L 684 0 
L 684 794 
z
" transform="scale(0.015625)"/>
     </defs>
     <use xlink:href="#DejaVuSans-Oblique-4e" transform="translate(0 0.78125)"/>
     <use xlink:href="#DejaVuSans-3d" transform="translate(94.287109 0.78125)"/>
     <use xlink:href="#DejaVuSans-31" transform="translate(197.558594 0.78125)"/>
     <use xlink:href="#DejaVuSans-30" transform="translate(261.181641 0.78125)"/>
     <use xlink:href="#DejaVuSans-2c" transform="translate(324.804688 0.78125)"/>
     <use xlink:href="#DejaVuSans-Oblique-3b1" transform="translate(376.074219 0.78125)"/>
     <use xlink:href="#DejaVuSans-3d" transform="translate(461.474609 0.78125)"/>
     <use xlink:href="#DejaVuSans-30" transform="translate(564.746094 0.78125)"/>
     <use xlink:href="#DejaVuSans-2c" transform="translate(628.369141 0.78125)"/>
     <use xlink:href="#DejaVuSans-Oblique-4a" transform="translate(679.638672 0.78125)"/>
     <use xlink:href="#DejaVuSans-Oblique-7a" transform="translate(709.130859 -15.625) scale(0.7)"/>
     <use xlink:href="#DejaVuSans-3d" transform="translate(768.09082 0.78125)"/>
     <use xlink:href="#DejaVuSans-31" transform="translate(871.362305 0.78125)"/>
     <use xlink:href="#DejaVuSans-2c" transform="translate(934.985352 0.78125)"/>
     <use xlink:href="#DejaVuSans-Oblique-4a" transform="translate(1002.490559 0.78125)"/>
     <use xlink:href="#DejaVuSans-Oblique-6c" transform="translate(1031.982747 -15.625) scale(0.7)"/>
     <use xlink:href="#DejaVuSans-Oblique-6f" transform="translate(1051.430989 -15.625) scale(0.7)"/>
     <use xlink:href="#DejaVuSans-Oblique-6e" transform="translate(1094.258137 -15.625) scale(0.7)"/>
     <use xlink:href="#DejaVuSans-Oblique-67" transform="translate(1138.623372 -15.625) scale(0.7)"/>
     <use xlink:href="#DejaVuSans-3d" transform="translate(1205.273762 0.78125)"/>
     <use xlink:href="#DejaVuSans-33" transform="translate(1308.545247 0.78125)"/>
     <use xlink:href="#DejaVuSans-2e" transform="translate(1372.168293 0.78125)"/>
     <use xlink:href="#DejaVuSans-30" transform="translate(1403.955403 0.78125)"/>
    </g>
   </g>
   <g id="legend_1">
    <g id="patch_7">
     <path d="M 77.949375 163.676 
L 141.639375 163.676 
Q 143.839375 163.676 143.839375 161.476 
L 143.839375 114.138187 
Q 143.839375 111.938187 141.639375 111.938187 
L 77.949375 111.938187 
Q 75.749375 111.938187 75.749375 114.138187 
L 75.749375 161.476 
Q 75.749375 163.676 77.949375 163.676 
z
" style="fill: #ffffff; opacity: 0.8; stroke: #cccccc; stroke-linejoin: miter"/>
    </g>
    <g id="line2d_38">
     <path d="M 80.149375 120.846469 
L 91.149375 120.846469 
L 102.149375 120.846469 
" style="fill: none; stroke: #000000; stroke-width: 1.5; stroke-linecap: square"/>
    </g>
    <g id="text_17">
     <!-- $(2;4)$ -->
     <g transform="translate(110.949375 124.696469) scale(0.11 -0.11)">
      <defs>
       <path id="DejaVuSans-28" d="M 1984 4856 
Q 1566 4138 1362 3434 
Q 1159 2731 1159 2009 
Q 1159 1288 1364 580 
Q 1569 -128 1984 -844 
L 1484 -844 
Q 1016 -109 783 600 
Q 550 1309 550 2009 
Q 550 2706 781 3412 
Q 1013 4119 1484 4856 
L 1984 4856 
z
" transform="scale(0.015625)"/>
       <path id="DejaVuSans-3b" d="M 750 3309 
L 1409 3309 
L 1409 2516 
L 750 2516 
L 750 3309 
z
M 750 794 
L 1409 794 
L 1409 256 
L 897 -744 
L 494 -744 
L 750 256 
L 750 794 
z
" transform="scale(0.015625)"/>
       <path id="DejaVuSans-29" d="M 513 4856 
L 1013 4856 
Q 1481 4119 1714 3412 
Q 1947 2706 1947 2009 
Q 1947 1309 1714 600 
Q 1481 -109 1013 -844 
L 513 -844 
Q 928 -128 1133 580 
Q 1338 1288 1338 2009 
Q 1338 2731 1133 3434 
Q 928 4138 513 4856 
z
" transform="scale(0.015625)"/>
      </defs>
      <use xlink:href="#DejaVuSans-28" transform="translate(0 0.125)"/>
      <use xlink:href="#DejaVuSans-32" transform="translate(39.013672 0.125)"/>
      <use xlink:href="#DejaVuSans-3b" transform="translate(102.636719 0.125)"/>
      <use xlink:href="#DejaVuSans-34" transform="translate(155.810547 0.125)"/>
      <use xlink:href="#DejaVuSans-29" transform="translate(219.433594 0.125)"/>
     </g>
    </g>
    <g id="line2d_39">
     <path d="M 80.149375 136.992406 
L 91.149375 136.992406 
L 102.149375 136.992406 
" style="fill: none; stroke: #ff0000; stroke-width: 1.5; stroke-linecap: square"/>
    </g>
    <g id="text_18">
     <!-- $(2;)$ -->
     <g transform="translate(110.949375 140.842406) scale(0.11 -0.11)">
      <use xlink:href="#DejaVuSans-28" transform="translate(0 0.125)"/>
      <use xlink:href="#DejaVuSans-32" transform="translate(39.013672 0.125)"/>
      <use xlink:href="#DejaVuSans-3b" transform="translate(102.636719 0.125)"/>
      <use xlink:href="#DejaVuSans-29" transform="translate(155.810547 0.125)"/>
     </g>
    </g>
    <g id="line2d_40">
     <path d="M 80.149375 153.138344 
L 91.149375 153.138344 
L 102.149375 153.138344 
" style="fill: none; stroke: #0000ff; stroke-width: 1.5; stroke-linecap: square"/>
    </g>
    <g id="text_19">
     <!-- $(4;)$ -->
     <g transform="translate(110.949375 156.988344) scale(0.11 -0.11)">
      <use xlink:href="#DejaVuSans-28" transform="translate(0 0.125)"/>
      <use xlink:href="#DejaVuSans-34" transform="translate(39.013672 0.125)"/>
      <use xlink:href="#DejaVuSans-3b" transform="translate(102.636719 0.125)"/>
      <use xlink:href="#DejaVuSans-29" transform="translate(155.810547 0.125)"/>
     </g>
    </g>
   </g>
  </g>
 </g>
 <defs>
  <clipPath id="p2254faefbf">
   <rect x="70.249375" y="23.7" width="268.508888" height="145.476"/>
  </clipPath>
 </defs>
</svg>
