<?xml version="1.0" encoding="utf-8" standalone="no"?>
<!DOCTYPE svg PUBLIC "-//W3C//DTD SVG 1.1//EN"
  "http://www.w3.org/Graphics/SVG/1.1/DTD/svg11.dtd">
<svg xmlns:xlink="http://www.w3.org/1999/xlink" width="352.320763pt" height="207.1035pt" viewBox="0 0 352.320763 207.1035" xmlns="http://www.w3.org/2000/svg" version="1.1">
 <metadata>
  <rdf:RDF xmlns:dc="http://purl.org/dc/elements/1.1/" xmlns:cc="http://creativecommons.org/ns#" xmlns:rdf="http://www.w3.org/1999/02/22-rdf-syntax-ns#">
   <cc:Work>
    <dc:type rdf:resource="http://purl.org/dc/dcmitype/StillImage"/>
    <dc:date>2025-09-30T16:36:51.453825</dc:date>
    <dc:format>image/svg+xml</dc:format>
    <dc:creator>
     <cc:Agent>
      <dc:title>Matplotlib v3.9.1, https://matplotlib.org/</dc:title>
     </cc:Agent>
    </dc:creator>
   </cc:Work>
  </rdf:RDF>
 </metadata>
 <defs>
  <style type="text/css">*{stroke-linejoin: round; stroke-linecap: butt}</style>
 </defs>
 <g id="figure_1">
  <g id="patch_1">
   <path d="M 0 207.1035 
L 352.320763 207.1035 
L 352.320763 0 
L 0 0 
z
" style="fill: #ffffff"/>
  </g>
  <g id="axes_1">
   <g id="patch_2">
    <path d="M 70.249375 169.176 
L 338.758263 169.176 
L 338.758263 23.7 
L 70.249375 23.7 
z
" style="fill: #ffffff"/>
   </g>
   <g id="matplotlib.axis_1">
    <g id="xtick_1">
     <g id="line2d_1">
      <defs>
       <path id="mf35e9c3bfa" d="M 0 0 
L 0 -3.5 
" style="stroke: #000000; stroke-width: 0.8"/>
      </defs>
      <g>
       <use xlink:href="#mf35e9c3bfa" x="70.249375" y="169.176" style="stroke: #000000; stroke-width: 0.8"/>
      </g>
     </g>
     <g id="line2d_2">
      <defs>
       <path id="md163f91b4c" d="M 0 0 
L 0 3.5 
" style="stroke: #000000; stroke-width: 0.8"/>
      </defs>
      <g>
       <use xlink:href="#md163f91b4c" x="70.249375" y="23.7" style="stroke: #000000; stroke-width: 0.8"/>
      </g>
     </g>
     <g id="text_1">
      <!-- 0 -->
      <g transform="translate(67.068125 180.274438) scale(0.1 -0.1)">
       <defs>
        <path id="DejaVuSans-30" d="M 2034 4250 
Q 1547 4250 1301 3770 
Q 1056 3291 1056 2328 
Q 1056 1369 1301 889 
Q 1547 409 2034 409 
Q 2525 409 2770 889 
Q 3016 1369 3016 2328 
Q 3016 3291 2770 3770 
Q 2525 4250 2034 4250 
z
M 2034 4750 
Q 2819 4750 3233 4129 
Q 3647 3509 3647 2328 
Q 3647 1150 3233 529 
Q 2819 -91 2034 -91 
Q 1250 -91 836 529 
Q 422 1150 422 2328 
Q 422 3509 836 4129 
Q 1250 4750 2034 4750 
z
" transform="scale(0.015625)"/>
       </defs>
       <use xlink:href="#DejaVuSans-30"/>
      </g>
     </g>
    </g>
    <g id="xtick_2">
     <g id="line2d_3">
      <g>
       <use xlink:href="#mf35e9c3bfa" x="115.000856" y="169.176" style="stroke: #000000; stroke-width: 0.8"/>
      </g>
     </g>
     <g id="line2d_4">
      <g>
       <use xlink:href="#md163f91b4c" x="115.000856" y="23.7" style="stroke: #000000; stroke-width: 0.8"/>
      </g>
     </g>
     <g id="text_2">
      <!-- 5 -->
      <g transform="translate(111.819606 180.274438) scale(0.1 -0.1)">
       <defs>
        <path id="DejaVuSans-35" d="M 691 4666 
L 3169 4666 
L 3169 4134 
L 1269 4134 
L 1269 2991 
Q 1406 3038 1543 3061 
Q 1681 3084 1819 3084 
Q 2600 3084 3056 2656 
Q 3513 2228 3513 1497 
Q 3513 744 3044 326 
Q 2575 -91 1722 -91 
Q 1428 -91 1123 -41 
Q 819 9 494 109 
L 494 744 
Q 775 591 1075 516 
Q 1375 441 1709 441 
Q 2250 441 2565 725 
Q 2881 1009 2881 1497 
Q 2881 1984 2565 2268 
Q 2250 2553 1709 2553 
Q 1456 2553 1204 2497 
Q 953 2441 691 2322 
L 691 4666 
z
" transform="scale(0.015625)"/>
       </defs>
       <use xlink:href="#DejaVuSans-35"/>
      </g>
     </g>
    </g>
    <g id="xtick_3">
     <g id="line2d_5">
      <g>
       <use xlink:href="#mf35e9c3bfa" x="159.752338" y="169.176" style="stroke: #000000; stroke-width: 0.8"/>
      </g>
     </g>
     <g id="line2d_6">
      <g>
       <use xlink:href="#md163f91b4c" x="159.752338" y="23.7" style="stroke: #000000; stroke-width: 0.8"/>
      </g>
     </g>
     <g id="text_3">
      <!-- 10 -->
      <g transform="translate(153.389838 180.274438) scale(0.1 -0.1)">
       <defs>
        <path id="DejaVuSans-31" d="M 794 531 
L 1825 531 
L 1825 4091 
L 703 3866 
L 703 4441 
L 1819 4666 
L 2450 4666 
L 2450 531 
L 3481 531 
L 3481 0 
L 794 0 
L 794 531 
z
" transform="scale(0.015625)"/>
       </defs>
       <use xlink:href="#DejaVuSans-31"/>
       <use xlink:href="#DejaVuSans-30" x="63.623047"/>
      </g>
     </g>
    </g>
    <g id="xtick_4">
     <g id="line2d_7">
      <g>
       <use xlink:href="#mf35e9c3bfa" x="204.503819" y="169.176" style="stroke: #000000; stroke-width: 0.8"/>
      </g>
     </g>
     <g id="line2d_8">
      <g>
       <use xlink:href="#md163f91b4c" x="204.503819" y="23.7" style="stroke: #000000; stroke-width: 0.8"/>
      </g>
     </g>
     <g id="text_4">
      <!-- 15 -->
      <g transform="translate(198.141319 180.274438) scale(0.1 -0.1)">
       <use xlink:href="#DejaVuSans-31"/>
       <use xlink:href="#DejaVuSans-35" x="63.623047"/>
      </g>
     </g>
    </g>
    <g id="xtick_5">
     <g id="line2d_9">
      <g>
       <use xlink:href="#mf35e9c3bfa" x="249.255301" y="169.176" style="stroke: #000000; stroke-width: 0.8"/>
      </g>
     </g>
     <g id="line2d_10">
      <g>
       <use xlink:href="#md163f91b4c" x="249.255301" y="23.7" style="stroke: #000000; stroke-width: 0.8"/>
      </g>
     </g>
     <g id="text_5">
      <!-- 20 -->
      <g transform="translate(242.892801 180.274438) scale(0.1 -0.1)">
       <defs>
        <path id="DejaVuSans-32" d="M 1228 531 
L 3431 531 
L 3431 0 
L 469 0 
L 469 531 
Q 828 903 1448 1529 
Q 2069 2156 2228 2338 
Q 2531 2678 2651 2914 
Q 2772 3150 2772 3378 
Q 2772 3750 2511 3984 
Q 2250 4219 1831 4219 
Q 1534 4219 1204 4116 
Q 875 4013 500 3803 
L 500 4441 
Q 881 4594 1212 4672 
Q 1544 4750 1819 4750 
Q 2544 4750 2975 4387 
Q 3406 4025 3406 3419 
Q 3406 3131 3298 2873 
Q 3191 2616 2906 2266 
Q 2828 2175 2409 1742 
Q 1991 1309 1228 531 
z
" transform="scale(0.015625)"/>
       </defs>
       <use xlink:href="#DejaVuSans-32"/>
       <use xlink:href="#DejaVuSans-30" x="63.623047"/>
      </g>
     </g>
    </g>
    <g id="xtick_6">
     <g id="line2d_11">
      <g>
       <use xlink:href="#mf35e9c3bfa" x="294.006782" y="169.176" style="stroke: #000000; stroke-width: 0.8"/>
      </g>
     </g>
     <g id="line2d_12">
      <g>
       <use xlink:href="#md163f91b4c" x="294.006782" y="23.7" style="stroke: #000000; stroke-width: 0.8"/>
      </g>
     </g>
     <g id="text_6">
      <!-- 25 -->
      <g transform="translate(287.644282 180.274438) scale(0.1 -0.1)">
       <use xlink:href="#DejaVuSans-32"/>
       <use xlink:href="#DejaVuSans-35" x="63.623047"/>
      </g>
     </g>
    </g>
    <g id="xtick_7">
     <g id="line2d_13">
      <g>
       <use xlink:href="#mf35e9c3bfa" x="338.758263" y="169.176" style="stroke: #000000; stroke-width: 0.8"/>
      </g>
     </g>
     <g id="line2d_14">
      <g>
       <use xlink:href="#md163f91b4c" x="338.758263" y="23.7" style="stroke: #000000; stroke-width: 0.8"/>
      </g>
     </g>
     <g id="text_7">
      <!-- 30 -->
      <g transform="translate(332.395763 180.274438) scale(0.1 -0.1)">
       <defs>
        <path id="DejaVuSans-33" d="M 2597 2516 
Q 3050 2419 3304 2112 
Q 3559 1806 3559 1356 
Q 3559 666 3084 287 
Q 2609 -91 1734 -91 
Q 1441 -91 1130 -33 
Q 819 25 488 141 
L 488 750 
Q 750 597 1062 519 
Q 1375 441 1716 441 
Q 2309 441 2620 675 
Q 2931 909 2931 1356 
Q 2931 1769 2642 2001 
Q 2353 2234 1838 2234 
L 1294 2234 
L 1294 2753 
L 1863 2753 
Q 2328 2753 2575 2939 
Q 2822 3125 2822 3475 
Q 2822 3834 2567 4026 
Q 2313 4219 1838 4219 
Q 1578 4219 1281 4162 
Q 984 4106 628 3988 
L 628 4550 
Q 988 4650 1302 4700 
Q 1616 4750 1894 4750 
Q 2613 4750 3031 4423 
Q 3450 4097 3450 3541 
Q 3450 3153 3228 2886 
Q 3006 2619 2597 2516 
z
" transform="scale(0.015625)"/>
       </defs>
       <use xlink:href="#DejaVuSans-33"/>
       <use xlink:href="#DejaVuSans-30" x="63.623047"/>
      </g>
     </g>
    </g>
    <g id="text_8">
     <!-- Time -->
     <g transform="translate(187.376788 196.991938) scale(0.14 -0.14)">
      <defs>
       <path id="DejaVuSans-54" d="M -19 4666 
L 3928 4666 
L 3928 4134 
L 2272 4134 
L 2272 0 
L 1638 0 
L 1638 4134 
L -19 4134 
L -19 4666 
z
" transform="scale(0.015625)"/>
       <path id="DejaVuSans-69" d="M 603 3500 
L 1178 3500 
L 1178 0 
L 603 0 
L 603 3500 
z
M 603 4863 
L 1178 4863 
L 1178 4134 
L 603 4134 
L 603 4863 
z
" transform="scale(0.015625)"/>
       <path id="DejaVuSans-6d" d="M 3328 2828 
Q 3544 3216 3844 3400 
Q 4144 3584 4550 3584 
Q 5097 3584 5394 3201 
Q 5691 2819 5691 2113 
L 5691 0 
L 5113 0 
L 5113 2094 
Q 5113 2597 4934 2840 
Q 4756 3084 4391 3084 
Q 3944 3084 3684 2787 
Q 3425 2491 3425 1978 
L 3425 0 
L 2847 0 
L 2847 2094 
Q 2847 2600 2669 2842 
Q 2491 3084 2119 3084 
Q 1678 3084 1418 2786 
Q 1159 2488 1159 1978 
L 1159 0 
L 581 0 
L 581 3500 
L 1159 3500 
L 1159 2956 
Q 1356 3278 1631 3431 
Q 1906 3584 2284 3584 
Q 2666 3584 2933 3390 
Q 3200 3197 3328 2828 
z
" transform="scale(0.015625)"/>
       <path id="DejaVuSans-65" d="M 3597 1894 
L 3597 1613 
L 953 1613 
Q 991 1019 1311 708 
Q 1631 397 2203 397 
Q 2534 397 2845 478 
Q 3156 559 3463 722 
L 3463 178 
Q 3153 47 2828 -22 
Q 2503 -91 2169 -91 
Q 1331 -91 842 396 
Q 353 884 353 1716 
Q 353 2575 817 3079 
Q 1281 3584 2069 3584 
Q 2775 3584 3186 3129 
Q 3597 2675 3597 1894 
z
M 3022 2063 
Q 3016 2534 2758 2815 
Q 2500 3097 2075 3097 
Q 1594 3097 1305 2825 
Q 1016 2553 972 2059 
L 3022 2063 
z
" transform="scale(0.015625)"/>
      </defs>
      <use xlink:href="#DejaVuSans-54"/>
      <use xlink:href="#DejaVuSans-69" x="57.958984"/>
      <use xlink:href="#DejaVuSans-6d" x="85.742188"/>
      <use xlink:href="#DejaVuSans-65" x="183.154297"/>
     </g>
    </g>
   </g>
   <g id="matplotlib.axis_2">
    <g id="ytick_1">
     <g id="line2d_15">
      <defs>
       <path id="m08e338fd9b" d="M 0 0 
L 3.5 0 
" style="stroke: #000000; stroke-width: 0.8"/>
      </defs>
      <g>
       <use xlink:href="#m08e338fd9b" x="70.249375" y="169.176" style="stroke: #000000; stroke-width: 0.8"/>
      </g>
     </g>
     <g id="line2d_16">
      <defs>
       <path id="mb8f9b559fc" d="M 0 0 
L -3.5 0 
" style="stroke: #000000; stroke-width: 0.8"/>
      </defs>
      <g>
       <use xlink:href="#mb8f9b559fc" x="338.758263" y="169.176" style="stroke: #000000; stroke-width: 0.8"/>
      </g>
     </g>
     <g id="text_9">
      <!-- $\mathdefault{10^{-1}}$ -->
      <g transform="translate(43.249375 172.975219) scale(0.1 -0.1)">
       <defs>
        <path id="DejaVuSans-2212" d="M 678 2272 
L 4684 2272 
L 4684 1741 
L 678 1741 
L 678 2272 
z
" transform="scale(0.015625)"/>
       </defs>
       <use xlink:href="#DejaVuSans-31" transform="translate(0 0.684375)"/>
       <use xlink:href="#DejaVuSans-30" transform="translate(63.623047 0.684375)"/>
       <use xlink:href="#DejaVuSans-2212" transform="translate(128.203125 38.965625) scale(0.7)"/>
       <use xlink:href="#DejaVuSans-31" transform="translate(186.855469 38.965625) scale(0.7)"/>
      </g>
     </g>
    </g>
    <g id="ytick_2">
     <g id="line2d_17">
      <g>
       <use xlink:href="#m08e338fd9b" x="70.249375" y="23.7" style="stroke: #000000; stroke-width: 0.8"/>
      </g>
     </g>
     <g id="line2d_18">
      <g>
       <use xlink:href="#mb8f9b559fc" x="338.758263" y="23.7" style="stroke: #000000; stroke-width: 0.8"/>
      </g>
     </g>
     <g id="text_10">
      <!-- $\mathdefault{10^{0}}$ -->
      <g transform="translate(49.149375 27.499219) scale(0.1 -0.1)">
       <use xlink:href="#DejaVuSans-31" transform="translate(0 0.765625)"/>
       <use xlink:href="#DejaVuSans-30" transform="translate(63.623047 0.765625)"/>
       <use xlink:href="#DejaVuSans-30" transform="translate(128.203125 39.046875) scale(0.7)"/>
      </g>
     </g>
    </g>
    <g id="ytick_3">
     <g id="line2d_19">
      <defs>
       <path id="m7dd363d91d" d="M 0 0 
L 2 0 
" style="stroke: #000000; stroke-width: 0.6"/>
      </defs>
      <g>
       <use xlink:href="#m7dd363d91d" x="70.249375" y="125.38336" style="stroke: #000000; stroke-width: 0.6"/>
      </g>
     </g>
     <g id="line2d_20">
      <defs>
       <path id="m00b5f40fbb" d="M 0 0 
L -2 0 
" style="stroke: #000000; stroke-width: 0.6"/>
      </defs>
      <g>
       <use xlink:href="#m00b5f40fbb" x="338.758263" y="125.38336" style="stroke: #000000; stroke-width: 0.6"/>
      </g>
     </g>
     <g id="text_11">
      <!-- $\mathdefault{2\times10^{-1}}$ -->
      <g transform="translate(24.749375 129.182579) scale(0.1 -0.1)">
       <defs>
        <path id="DejaVuSans-d7" d="M 4488 3438 
L 3059 2003 
L 4488 575 
L 4116 197 
L 2681 1631 
L 1247 197 
L 878 575 
L 2303 2003 
L 878 3438 
L 1247 3816 
L 2681 2381 
L 4116 3816 
L 4488 3438 
z
" transform="scale(0.015625)"/>
       </defs>
       <use xlink:href="#DejaVuSans-32" transform="translate(0 0.684375)"/>
       <use xlink:href="#DejaVuSans-d7" transform="translate(83.105469 0.684375)"/>
       <use xlink:href="#DejaVuSans-31" transform="translate(186.376953 0.684375)"/>
       <use xlink:href="#DejaVuSans-30" transform="translate(250 0.684375)"/>
       <use xlink:href="#DejaVuSans-2212" transform="translate(314.580078 38.965625) scale(0.7)"/>
       <use xlink:href="#DejaVuSans-31" transform="translate(373.232422 38.965625) scale(0.7)"/>
      </g>
     </g>
    </g>
    <g id="ytick_4">
     <g id="line2d_21">
      <g>
       <use xlink:href="#m7dd363d91d" x="70.249375" y="99.766308" style="stroke: #000000; stroke-width: 0.6"/>
      </g>
     </g>
     <g id="line2d_22">
      <g>
       <use xlink:href="#m00b5f40fbb" x="338.758263" y="99.766308" style="stroke: #000000; stroke-width: 0.6"/>
      </g>
     </g>
     <g id="text_12">
      <!-- $\mathdefault{3\times10^{-1}}$ -->
      <g transform="translate(24.749375 103.565527) scale(0.1 -0.1)">
       <use xlink:href="#DejaVuSans-33" transform="translate(0 0.684375)"/>
       <use xlink:href="#DejaVuSans-d7" transform="translate(83.105469 0.684375)"/>
       <use xlink:href="#DejaVuSans-31" transform="translate(186.376953 0.684375)"/>
       <use xlink:href="#DejaVuSans-30" transform="translate(250 0.684375)"/>
       <use xlink:href="#DejaVuSans-2212" transform="translate(314.580078 38.965625) scale(0.7)"/>
       <use xlink:href="#DejaVuSans-31" transform="translate(373.232422 38.965625) scale(0.7)"/>
      </g>
     </g>
    </g>
    <g id="ytick_5">
     <g id="line2d_23">
      <g>
       <use xlink:href="#m7dd363d91d" x="70.249375" y="81.590721" style="stroke: #000000; stroke-width: 0.6"/>
      </g>
     </g>
     <g id="line2d_24">
      <g>
       <use xlink:href="#m00b5f40fbb" x="338.758263" y="81.590721" style="stroke: #000000; stroke-width: 0.6"/>
      </g>
     </g>
     <g id="text_13">
      <!-- $\mathdefault{4\times10^{-1}}$ -->
      <g transform="translate(24.749375 85.389939) scale(0.1 -0.1)">
       <defs>
        <path id="DejaVuSans-34" d="M 2419 4116 
L 825 1625 
L 2419 1625 
L 2419 4116 
z
M 2253 4666 
L 3047 4666 
L 3047 1625 
L 3713 1625 
L 3713 1100 
L 3047 1100 
L 3047 0 
L 2419 0 
L 2419 1100 
L 313 1100 
L 313 1709 
L 2253 4666 
z
" transform="scale(0.015625)"/>
       </defs>
       <use xlink:href="#DejaVuSans-34" transform="translate(0 0.684375)"/>
       <use xlink:href="#DejaVuSans-d7" transform="translate(83.105469 0.684375)"/>
       <use xlink:href="#DejaVuSans-31" transform="translate(186.376953 0.684375)"/>
       <use xlink:href="#DejaVuSans-30" transform="translate(250 0.684375)"/>
       <use xlink:href="#DejaVuSans-2212" transform="translate(314.580078 38.965625) scale(0.7)"/>
       <use xlink:href="#DejaVuSans-31" transform="translate(373.232422 38.965625) scale(0.7)"/>
      </g>
     </g>
    </g>
    <g id="ytick_6">
     <g id="line2d_25">
      <g>
       <use xlink:href="#m7dd363d91d" x="70.249375" y="67.49264" style="stroke: #000000; stroke-width: 0.6"/>
      </g>
     </g>
     <g id="line2d_26">
      <g>
       <use xlink:href="#m00b5f40fbb" x="338.758263" y="67.49264" style="stroke: #000000; stroke-width: 0.6"/>
      </g>
     </g>
    </g>
    <g id="ytick_7">
     <g id="line2d_27">
      <g>
       <use xlink:href="#m7dd363d91d" x="70.249375" y="55.973669" style="stroke: #000000; stroke-width: 0.6"/>
      </g>
     </g>
     <g id="line2d_28">
      <g>
       <use xlink:href="#m00b5f40fbb" x="338.758263" y="55.973669" style="stroke: #000000; stroke-width: 0.6"/>
      </g>
     </g>
     <g id="text_14">
      <!-- $\mathdefault{6\times10^{-1}}$ -->
      <g transform="translate(24.749375 59.772887) scale(0.1 -0.1)">
       <defs>
        <path id="DejaVuSans-36" d="M 2113 2584 
Q 1688 2584 1439 2293 
Q 1191 2003 1191 1497 
Q 1191 994 1439 701 
Q 1688 409 2113 409 
Q 2538 409 2786 701 
Q 3034 994 3034 1497 
Q 3034 2003 2786 2293 
Q 2538 2584 2113 2584 
z
M 3366 4563 
L 3366 3988 
Q 3128 4100 2886 4159 
Q 2644 4219 2406 4219 
Q 1781 4219 1451 3797 
Q 1122 3375 1075 2522 
Q 1259 2794 1537 2939 
Q 1816 3084 2150 3084 
Q 2853 3084 3261 2657 
Q 3669 2231 3669 1497 
Q 3669 778 3244 343 
Q 2819 -91 2113 -91 
Q 1303 -91 875 529 
Q 447 1150 447 2328 
Q 447 3434 972 4092 
Q 1497 4750 2381 4750 
Q 2619 4750 2861 4703 
Q 3103 4656 3366 4563 
z
" transform="scale(0.015625)"/>
       </defs>
       <use xlink:href="#DejaVuSans-36" transform="translate(0 0.684375)"/>
       <use xlink:href="#DejaVuSans-d7" transform="translate(83.105469 0.684375)"/>
       <use xlink:href="#DejaVuSans-31" transform="translate(186.376953 0.684375)"/>
       <use xlink:href="#DejaVuSans-30" transform="translate(250 0.684375)"/>
       <use xlink:href="#DejaVuSans-2212" transform="translate(314.580078 38.965625) scale(0.7)"/>
       <use xlink:href="#DejaVuSans-31" transform="translate(373.232422 38.965625) scale(0.7)"/>
      </g>
     </g>
    </g>
    <g id="ytick_8">
     <g id="line2d_29">
      <g>
       <use xlink:href="#m7dd363d91d" x="70.249375" y="46.234518" style="stroke: #000000; stroke-width: 0.6"/>
      </g>
     </g>
     <g id="line2d_30">
      <g>
       <use xlink:href="#m00b5f40fbb" x="338.758263" y="46.234518" style="stroke: #000000; stroke-width: 0.6"/>
      </g>
     </g>
    </g>
    <g id="ytick_9">
     <g id="line2d_31">
      <g>
       <use xlink:href="#m7dd363d91d" x="70.249375" y="37.798081" style="stroke: #000000; stroke-width: 0.6"/>
      </g>
     </g>
     <g id="line2d_32">
      <g>
       <use xlink:href="#m00b5f40fbb" x="338.758263" y="37.798081" style="stroke: #000000; stroke-width: 0.6"/>
      </g>
     </g>
    </g>
    <g id="ytick_10">
     <g id="line2d_33">
      <g>
       <use xlink:href="#m7dd363d91d" x="70.249375" y="30.356617" style="stroke: #000000; stroke-width: 0.6"/>
      </g>
     </g>
     <g id="line2d_34">
      <g>
       <use xlink:href="#m00b5f40fbb" x="338.758263" y="30.356617" style="stroke: #000000; stroke-width: 0.6"/>
      </g>
     </g>
    </g>
    <g id="text_15">
     <!-- Fidelity -->
     <g transform="translate(17.837813 121.429094) rotate(-90) scale(0.14 -0.14)">
      <defs>
       <path id="DejaVuSans-46" d="M 628 4666 
L 3309 4666 
L 3309 4134 
L 1259 4134 
L 1259 2759 
L 3109 2759 
L 3109 2228 
L 1259 2228 
L 1259 0 
L 628 0 
L 628 4666 
z
" transform="scale(0.015625)"/>
       <path id="DejaVuSans-64" d="M 2906 2969 
L 2906 4863 
L 3481 4863 
L 3481 0 
L 2906 0 
L 2906 525 
Q 2725 213 2448 61 
Q 2172 -91 1784 -91 
Q 1150 -91 751 415 
Q 353 922 353 1747 
Q 353 2572 751 3078 
Q 1150 3584 1784 3584 
Q 2172 3584 2448 3432 
Q 2725 3281 2906 2969 
z
M 947 1747 
Q 947 1113 1208 752 
Q 1469 391 1925 391 
Q 2381 391 2643 752 
Q 2906 1113 2906 1747 
Q 2906 2381 2643 2742 
Q 2381 3103 1925 3103 
Q 1469 3103 1208 2742 
Q 947 2381 947 1747 
z
" transform="scale(0.015625)"/>
       <path id="DejaVuSans-6c" d="M 603 4863 
L 1178 4863 
L 1178 0 
L 603 0 
L 603 4863 
z
" transform="scale(0.015625)"/>
       <path id="DejaVuSans-74" d="M 1172 4494 
L 1172 3500 
L 2356 3500 
L 2356 3053 
L 1172 3053 
L 1172 1153 
Q 1172 725 1289 603 
Q 1406 481 1766 481 
L 2356 481 
L 2356 0 
L 1766 0 
Q 1100 0 847 248 
Q 594 497 594 1153 
L 594 3053 
L 172 3053 
L 172 3500 
L 594 3500 
L 594 4494 
L 1172 4494 
z
" transform="scale(0.015625)"/>
       <path id="DejaVuSans-79" d="M 2059 -325 
Q 1816 -950 1584 -1140 
Q 1353 -1331 966 -1331 
L 506 -1331 
L 506 -850 
L 844 -850 
Q 1081 -850 1212 -737 
Q 1344 -625 1503 -206 
L 1606 56 
L 191 3500 
L 800 3500 
L 1894 763 
L 2988 3500 
L 3597 3500 
L 2059 -325 
z
" transform="scale(0.015625)"/>
      </defs>
      <use xlink:href="#DejaVuSans-46"/>
      <use xlink:href="#DejaVuSans-69" x="50.269531"/>
      <use xlink:href="#DejaVuSans-64" x="78.052734"/>
      <use xlink:href="#DejaVuSans-65" x="141.529297"/>
      <use xlink:href="#DejaVuSans-6c" x="203.052734"/>
      <use xlink:href="#DejaVuSans-69" x="230.835938"/>
      <use xlink:href="#DejaVuSans-74" x="258.619141"/>
      <use xlink:href="#DejaVuSans-79" x="297.828125"/>
     </g>
    </g>
   </g>
   <g id="line2d_35">
    <path d="M 70.249375 23.7 
L 71.144405 28.294146 
L 72.039434 37.087845 
L 72.934464 40.697023 
L 73.829494 37.872993 
L 74.724523 33.841323 
L 75.619553 31.791661 
L 76.514582 32.318294 
L 77.409612 33.811658 
L 78.304642 34.356895 
L 79.199671 34.268035 
L 80.094701 34.534391 
L 80.989731 34.980402 
L 81.88476 35.129295 
L 82.77979 35.039266 
L 83.674819 35.062026 
L 86.359908 35.668738 
L 87.254938 35.700281 
L 89.044997 34.968847 
L 89.940027 35.085399 
L 90.835056 36.01236 
L 91.730086 37.361522 
L 92.625116 38.017695 
L 93.520145 37.420294 
L 94.415175 37.092765 
L 95.310205 37.722627 
L 96.205234 36.858439 
L 97.100264 34.167219 
L 97.995293 33.459709 
L 98.890323 36.0941 
L 99.785353 39.377399 
L 100.680382 41.147757 
L 101.575412 40.850999 
L 102.470442 38.441991 
L 103.365471 35.639118 
L 104.260501 34.186534 
L 105.155531 34.273263 
L 106.05056 36.249651 
L 106.94559 39.832648 
L 107.840619 42.162821 
L 108.735649 40.937175 
L 109.630679 37.934063 
L 110.525708 36.542936 
L 111.420738 38.197847 
L 112.315768 41.124112 
L 113.210797 42.2137 
L 115.000856 40.103104 
L 115.895886 40.707111 
L 116.790916 41.574058 
L 118.580975 40.903238 
L 120.371034 43.823956 
L 121.266064 43.357327 
L 122.161093 42.088312 
L 123.056123 41.782067 
L 123.951153 42.346806 
L 124.846182 43.608434 
L 125.741212 45.486229 
L 126.636242 46.799332 
L 127.531271 46.960452 
L 128.426301 46.772928 
L 129.32133 46.376198 
L 130.21636 45.592101 
L 131.11139 45.10155 
L 132.006419 45.20598 
L 132.901449 45.967383 
L 133.796479 48.174547 
L 134.691508 51.455643 
L 135.586538 53.373839 
L 136.481567 52.264663 
L 137.376597 49.237464 
L 138.271627 47.195436 
L 139.166656 48.240568 
L 140.061686 51.266626 
L 140.956716 53.314245 
L 141.851745 53.563296 
L 142.746775 53.440064 
L 144.536834 54.206735 
L 145.431864 54.287371 
L 146.326893 55.006047 
L 147.221923 56.486232 
L 148.116953 56.733317 
L 149.011982 55.32948 
L 149.907012 54.58993 
L 150.802042 55.658978 
L 151.697071 57.720391 
L 152.592101 59.440648 
L 153.48713 59.471135 
L 154.38216 58.277845 
L 155.27719 57.878201 
L 156.172219 58.249785 
L 157.067249 57.775407 
L 157.962279 56.710088 
L 158.857308 56.742163 
L 159.752338 58.566272 
L 160.647367 61.265711 
L 161.542397 63.11134 
L 162.437427 63.47538 
L 163.332456 63.219777 
L 164.227486 62.409077 
L 165.122516 60.463606 
L 166.017545 58.938515 
L 166.912575 60.183401 
L 167.807604 63.638274 
L 168.702634 66.515271 
L 169.597664 67.745103 
L 170.492693 68.258064 
L 171.387723 68.202325 
L 172.282753 67.241181 
L 173.177782 66.481314 
L 174.072812 67.329847 
L 174.967842 69.111777 
L 175.862871 69.953136 
L 176.757901 69.670259 
L 177.65293 69.632734 
L 178.54796 70.581606 
L 179.44299 72.078294 
L 180.338019 73.043935 
L 181.233049 72.882035 
L 182.128079 72.49516 
L 183.023108 72.891944 
L 183.918138 73.565933 
L 184.813167 73.86335 
L 185.708197 74.554339 
L 186.603227 76.763915 
L 187.498256 80.051 
L 188.393286 81.923128 
L 189.288316 80.920167 
L 190.183345 79.474818 
L 191.078375 80.123644 
L 191.973404 81.532465 
L 192.868434 81.144986 
L 193.763464 80.034354 
L 194.658493 81.163025 
L 196.448553 87.98621 
L 197.343582 89.007767 
L 198.238612 87.958776 
L 199.133641 86.172468 
L 200.028671 85.059425 
L 200.923701 85.348759 
L 201.81873 86.884996 
L 204.503819 93.63697 
L 205.398849 93.728586 
L 206.293878 92.853073 
L 207.188908 92.594046 
L 208.083938 93.520299 
L 208.978967 94.877635 
L 209.873997 95.935485 
L 210.769027 96.6056 
L 211.664056 96.598189 
L 212.559086 95.676167 
L 213.454116 95.133689 
L 214.349145 96.846444 
L 215.244175 99.892583 
L 216.139204 100.428305 
L 217.034234 97.721574 
L 217.929264 95.772372 
L 218.824293 97.031312 
L 219.719323 100.069665 
L 220.614353 102.35924 
L 222.404412 104.302389 
L 224.194471 108.455728 
L 225.089501 107.284266 
L 225.98453 103.496359 
L 226.87956 101.211407 
L 227.77459 102.684821 
L 228.669619 106.058241 
L 229.564649 108.58708 
L 231.354708 111.235261 
L 232.249738 111.980015 
L 233.144767 111.100308 
L 234.039797 108.563353 
L 234.934827 106.701058 
L 235.829856 107.686667 
L 237.619915 113.252938 
L 238.514945 115.382198 
L 239.409975 116.691879 
L 240.305004 115.95074 
L 241.200034 114.400524 
L 242.095064 114.662842 
L 242.990093 116.620617 
L 243.885123 118.087235 
L 244.780153 118.296413 
L 245.675182 118.142986 
L 246.570212 118.579423 
L 247.465241 120.260636 
L 248.360271 122.550728 
L 249.255301 123.662009 
L 250.15033 123.451479 
L 251.04536 123.503586 
L 251.94039 124.179334 
L 252.835419 123.933725 
L 253.730449 122.015958 
L 254.625478 120.923592 
L 255.520508 123.58459 
L 256.415538 128.962791 
L 257.310567 132.998411 
L 258.205597 134.153179 
L 259.100627 133.983915 
L 259.995656 132.769685 
L 260.890686 129.893311 
L 261.785715 127.40651 
L 262.680745 128.980178 
L 263.575775 134.614334 
L 264.470804 138.898544 
L 265.365834 138.784794 
L 266.260864 138.189687 
L 268.050923 141.124355 
L 268.945952 140.754211 
L 269.840982 138.406324 
L 270.736012 136.97465 
L 271.631041 139.437626 
L 272.526071 144.179459 
L 273.421101 146.167022 
L 275.21116 141.590107 
L 276.106189 142.637801 
L 277.001219 146.1306 
L 277.896249 148.2813 
L 279.686308 148.621722 
L 280.581338 148.113586 
L 281.476367 146.757966 
L 282.371397 147.813267 
L 283.266427 153.103036 
L 284.161456 159.146531 
L 285.056486 160.659298 
L 286.846545 155.783898 
L 287.741575 154.712537 
L 288.636604 153.101566 
L 289.531634 151.945342 
L 290.426664 154.541409 
L 292.216723 167.582043 
L 293.111752 168.684486 
L 294.901812 161.321432 
L 295.796841 160.725587 
L 298.48193 168.555476 
L 299.37696 171.909298 
L 300.271989 174.81524 
L 301.167019 175.013805 
L 302.957078 170.840397 
L 303.852108 171.960778 
L 304.747138 175.185892 
L 305.642167 177.016674 
L 306.537197 178.10171 
L 307.432226 180.124642 
L 308.327256 179.612059 
L 309.222286 175.424674 
L 310.117315 173.309466 
L 311.012345 176.855229 
L 311.907375 183.266184 
L 312.802404 186.336283 
L 313.697434 183.2062 
L 314.592464 177.875811 
L 315.487493 175.694475 
L 316.382523 178.580137 
L 318.172582 190.425783 
L 319.067612 194.273647 
L 319.962641 196.720053 
L 320.857671 195.61977 
L 321.752701 188.918329 
L 322.64773 181.248057 
L 323.54276 179.118389 
L 324.437789 184.01684 
L 325.332819 192.175237 
L 326.227849 198.201881 
L 327.122878 199.489198 
L 328.017908 197.395859 
L 329.807967 190.354188 
L 330.702997 189.320289 
L 332.493056 196.731778 
L 333.388086 195.627452 
L 334.283115 195.401229 
L 336.073175 206.203574 
L 336.968204 206.107149 
L 337.863234 202.152752 
L 338.758263 199.890631 
L 338.758263 199.890631 
" clip-path="url(#p0cadf4bc67)" style="fill: none; stroke: #000000; stroke-width: 1.5; stroke-linecap: square"/>
   </g>
   <g id="line2d_36">
    <path d="M 70.249375 23.7 
L 71.144405 27.719577 
L 72.039434 35.449972 
L 72.934464 38.762895 
L 73.829494 36.412076 
L 74.724523 33.002232 
L 75.619553 31.333585 
L 76.514582 31.700382 
L 77.409612 32.839495 
L 78.304642 33.431623 
L 79.199671 33.714972 
L 80.989731 34.869923 
L 81.88476 34.977834 
L 82.77979 34.825454 
L 83.674819 34.852433 
L 84.569849 35.05764 
L 85.464879 35.062934 
L 86.359908 34.889303 
L 87.254938 35.005331 
L 88.149968 35.439625 
L 89.044997 35.660568 
L 89.940027 35.593571 
L 90.835056 35.797148 
L 91.730086 36.376623 
L 92.625116 36.732515 
L 94.415175 36.438814 
L 96.205234 37.343564 
L 97.100264 36.969413 
L 97.995293 36.830434 
L 98.890323 38.095407 
L 99.785353 39.991725 
L 100.680382 41.218163 
L 101.575412 41.491531 
L 102.470442 40.884244 
L 103.365471 39.819763 
L 104.260501 39.272868 
L 105.155531 39.805168 
L 106.05056 41.231003 
L 106.94559 42.914754 
L 107.840619 43.773848 
L 108.735649 42.984415 
L 109.630679 41.311604 
L 110.525708 40.771481 
L 111.420738 42.474324 
L 112.315768 45.210776 
L 113.210797 46.527627 
L 114.105827 45.556999 
L 115.000856 44.008754 
L 115.895886 43.759005 
L 117.685945 45.518971 
L 118.580975 46.174165 
L 120.371034 47.953147 
L 121.266064 48.145794 
L 122.161093 47.832879 
L 123.056123 47.723649 
L 123.951153 48.48271 
L 125.741212 51.822857 
L 126.636242 52.924739 
L 127.531271 53.43177 
L 129.32133 53.884706 
L 131.11139 54.129269 
L 132.901449 54.694373 
L 133.796479 55.82348 
L 135.586538 60.630582 
L 136.481567 61.150744 
L 137.376597 59.875304 
L 138.271627 58.101499 
L 139.166656 57.521307 
L 140.061686 58.687508 
L 141.851745 62.160879 
L 142.746775 63.368279 
L 143.641805 63.790148 
L 144.536834 63.41849 
L 145.431864 63.188253 
L 146.326893 64.15897 
L 147.221923 66.01436 
L 148.116953 67.013664 
L 149.011982 66.763727 
L 149.907012 67.065478 
L 150.802042 68.817921 
L 151.697071 71.108722 
L 152.592101 73.038141 
L 153.48713 74.176078 
L 154.38216 74.58614 
L 155.27719 75.213976 
L 159.752338 82.029601 
L 160.647367 82.932102 
L 161.542397 83.594466 
L 162.437427 84.703841 
L 164.227486 88.930903 
L 165.122516 89.4856 
L 166.017545 88.509725 
L 166.912575 88.106744 
L 167.807604 89.229296 
L 170.492693 94.032692 
L 172.282753 98.702735 
L 173.177782 99.922343 
L 174.072812 100.51498 
L 174.967842 101.524615 
L 176.757901 104.98214 
L 177.65293 106.347623 
L 178.54796 108.53891 
L 180.338019 114.794143 
L 181.233049 116.071662 
L 182.128079 115.942034 
L 183.023108 116.263596 
L 183.918138 117.471351 
L 184.813167 117.809779 
L 185.708197 117.122253 
L 186.603227 117.812301 
L 187.498256 120.825938 
L 188.393286 124.340395 
L 189.288316 126.352344 
L 190.183345 126.465681 
L 191.078375 125.736889 
L 191.973404 125.694335 
L 192.868434 126.236969 
L 193.763464 125.931602 
L 194.658493 125.27037 
L 195.553523 126.167845 
L 196.448553 128.948418 
L 197.343582 132.467884 
L 198.238612 135.30283 
L 199.133641 136.347407 
L 200.028671 135.91302 
L 200.923701 135.173233 
L 201.81873 134.889127 
L 202.71376 136.31848 
L 203.60879 140.744139 
L 204.503819 146.604407 
L 205.398849 150.26285 
L 206.293878 150.86094 
L 207.188908 150.26004 
L 208.083938 150.177201 
L 208.978967 152.183397 
L 209.873997 156.682668 
L 210.769027 162.101761 
L 211.664056 166.473684 
L 212.559086 168.552974 
L 213.454116 168.759131 
L 214.349145 169.572746 
L 215.244175 172.669905 
L 216.139204 176.893767 
L 217.034234 179.765771 
L 217.929264 180.039047 
L 218.824293 179.075514 
L 219.719323 179.964059 
L 220.614353 184.318814 
L 221.509382 189.759818 
L 222.404412 192.345492 
L 223.299441 192.886605 
L 224.194471 196.018538 
L 225.806531 208.1035 
L 225.806531 208.1035 
" clip-path="url(#p0cadf4bc67)" style="fill: none; stroke: #ff0000; stroke-width: 1.5; stroke-linecap: square"/>
   </g>
   <g id="line2d_37">
    <path d="M 70.249375 23.7 
L 71.144405 27.715402 
L 72.039434 35.408667 
L 72.934464 38.662737 
L 73.829494 36.225073 
L 74.724523 32.668948 
L 75.619553 30.916544 
L 76.514582 31.346276 
L 77.409612 32.637718 
L 78.304642 33.352223 
L 79.199671 33.594194 
L 81.88476 34.893678 
L 83.674819 35.051969 
L 84.569849 35.33624 
L 85.464879 35.885351 
L 86.359908 36.653823 
L 87.254938 37.233732 
L 88.149968 37.322398 
L 89.044997 37.260741 
L 89.940027 37.383958 
L 90.835056 37.810639 
L 92.625116 39.813403 
L 94.415175 40.497577 
L 95.310205 41.299165 
L 96.205234 41.311771 
L 97.100264 40.013805 
L 97.995293 39.585519 
L 98.890323 41.182242 
L 99.785353 43.368798 
L 101.575412 46.779573 
L 102.470442 47.453838 
L 103.365471 46.577609 
L 104.260501 45.001541 
L 105.155531 44.248386 
L 106.05056 45.575217 
L 106.94559 48.785805 
L 107.840619 51.565436 
L 108.735649 51.763427 
L 109.630679 50.118618 
L 110.525708 49.049108 
L 111.420738 49.996746 
L 112.315768 52.247983 
L 113.210797 53.609025 
L 115.000856 52.636324 
L 115.895886 53.650523 
L 116.790916 55.791553 
L 117.685945 57.39227 
L 118.580975 57.772915 
L 119.476005 57.808135 
L 120.371034 58.169275 
L 121.266064 58.752394 
L 122.161093 59.901071 
L 123.951153 63.607016 
L 124.846182 64.335658 
L 125.741212 65.221462 
L 127.531271 68.54097 
L 128.426301 69.83763 
L 130.21636 73.070568 
L 131.11139 74.074188 
L 132.006419 74.293048 
L 132.901449 74.802812 
L 133.796479 77.0405 
L 135.586538 84.140551 
L 136.481567 85.665363 
L 137.376597 85.597843 
L 138.271627 85.263493 
L 139.166656 86.348145 
L 140.956716 91.598031 
L 142.746775 94.698565 
L 143.641805 97.129807 
L 144.536834 98.961496 
L 145.431864 99.472366 
L 146.326893 100.558896 
L 148.116953 107.218119 
L 149.011982 108.400656 
L 149.907012 108.205392 
L 150.802042 109.612147 
L 151.697071 113.698761 
L 152.592101 118.78967 
L 153.48713 122.265936 
L 154.38216 123.283803 
L 155.27719 123.444126 
L 156.172219 124.377382 
L 157.067249 125.791552 
L 157.962279 126.992646 
L 158.857308 128.888618 
L 159.752338 132.353492 
L 162.437427 145.325483 
L 163.332456 147.055079 
L 164.227486 146.933667 
L 165.122516 146.547415 
L 166.017545 147.339285 
L 166.912575 150.579777 
L 167.807604 155.639418 
L 168.702634 159.494097 
L 169.597664 161.44821 
L 170.492693 164.065511 
L 171.387723 167.453419 
L 172.282753 169.080671 
L 173.177782 169.306917 
L 174.072812 171.271276 
L 174.967842 175.971765 
L 175.862871 181.385874 
L 176.757901 185.733198 
L 178.54796 193.281392 
L 181.307399 208.1035 
M 230.241218 208.1035 
L 230.459678 207.113781 
L 231.354708 206.075417 
L 232.249738 205.990501 
L 233.144767 201.666958 
L 234.039797 193.704737 
L 234.934827 187.786916 
L 235.829856 186.149214 
L 236.724886 186.625423 
L 237.619915 186.664575 
L 238.514945 185.281576 
L 239.409975 181.670884 
L 241.200034 169.753565 
L 242.095064 165.939616 
L 242.990093 164.243485 
L 243.885123 163.890361 
L 244.780153 164.006103 
L 245.675182 162.857538 
L 246.570212 160.121073 
L 247.465241 157.957846 
L 248.360271 157.257108 
L 249.255301 156.285242 
L 253.730449 145.554161 
L 254.625478 145.662497 
L 255.520508 146.989674 
L 256.415538 147.617588 
L 257.310567 146.769044 
L 259.100627 142.874435 
L 259.995656 140.591244 
L 260.890686 137.491374 
L 261.785715 134.993126 
L 262.680745 135.087351 
L 263.575775 136.403796 
L 264.470804 136.15943 
L 265.365834 135.026604 
L 266.260864 135.060836 
L 267.155893 135.815693 
L 268.050923 135.572102 
L 268.945952 133.622264 
L 269.840982 130.617378 
L 270.736012 128.646324 
L 271.631041 129.997214 
L 272.526071 133.871806 
L 273.421101 135.689132 
L 274.31613 133.175772 
L 275.21116 129.840746 
L 276.106189 128.734535 
L 277.896249 129.624841 
L 278.791278 129.546175 
L 279.686308 128.939394 
L 280.581338 127.797498 
L 281.476367 126.903595 
L 282.371397 127.1929 
L 283.266427 128.223294 
L 284.161456 128.694575 
L 285.056486 128.114349 
L 286.846545 125.398525 
L 287.741575 124.558901 
L 288.636604 124.497818 
L 289.531634 125.496553 
L 290.426664 127.509012 
L 291.321693 128.883609 
L 292.216723 128.318196 
L 293.111752 126.785595 
L 294.006782 125.503199 
L 294.901812 125.009499 
L 295.796841 125.452896 
L 296.691871 126.029185 
L 298.48193 125.81413 
L 299.37696 126.474037 
L 300.271989 127.38629 
L 301.167019 126.920748 
L 302.062049 125.048137 
L 302.957078 123.991793 
L 303.852108 124.808523 
L 304.747138 125.903886 
L 305.642167 126.15889 
L 306.537197 126.941143 
L 307.432226 128.940062 
L 308.327256 129.744547 
L 310.117315 125.072965 
L 311.012345 125.510479 
L 311.907375 128.159885 
L 312.802404 129.891615 
L 313.697434 128.903646 
L 314.592464 126.05983 
L 315.487493 123.636499 
L 316.382523 123.074528 
L 317.277552 124.180264 
L 319.067612 128.504778 
L 319.962641 128.914669 
L 320.857671 127.019871 
L 321.752701 124.153615 
L 322.64773 121.977933 
L 323.54276 121.875051 
L 324.437789 124.160121 
L 325.332819 127.353039 
L 326.227849 129.584314 
L 327.122878 130.553579 
L 328.017908 130.740701 
L 328.912938 129.903151 
L 329.807967 128.441418 
L 330.702997 128.417881 
L 331.598026 130.5265 
L 332.493056 131.954392 
L 333.388086 130.848074 
L 334.283115 130.397097 
L 335.178145 133.325327 
L 336.073175 136.77572 
L 336.968204 136.473036 
L 337.863234 133.637382 
L 338.758263 132.088433 
L 338.758263 132.088433 
" clip-path="url(#p0cadf4bc67)" style="fill: none; stroke: #0000ff; stroke-width: 1.5; stroke-linecap: square"/>
   </g>
   <g id="patch_3">
    <path d="M 70.249375 169.176 
L 70.249375 23.7 
" style="fill: none; stroke: #000000; stroke-width: 0.8; stroke-linejoin: miter; stroke-linecap: square"/>
   </g>
   <g id="patch_4">
    <path d="M 338.758263 169.176 
L 338.758263 23.7 
" style="fill: none; stroke: #000000; stroke-width: 0.8; stroke-linejoin: miter; stroke-linecap: square"/>
   </g>
   <g id="patch_5">
    <path d="M 70.249375 169.176 
L 338.758263 169.176 
" style="fill: none; stroke: #000000; stroke-width: 0.8; stroke-linejoin: miter; stroke-linecap: square"/>
   </g>
   <g id="patch_6">
    <path d="M 70.249375 23.7 
L 338.758263 23.7 
" style="fill: none; stroke: #000000; stroke-width: 0.8; stroke-linejoin: miter; stroke-linecap: square"/>
   </g>
   <g id="text_16">
    <!-- $N=10, \alpha=0, J_z=1,\, J_{long}=2.0$ -->
    <g transform="translate(101.743819 17.7) scale(0.14 -0.14)">
     <defs>
      <path id="DejaVuSans-Oblique-4e" d="M 1081 4666 
L 1931 4666 
L 3219 666 
L 4000 4666 
L 4616 4666 
L 3706 0 
L 2853 0 
L 1569 4025 
L 788 0 
L 172 0 
L 1081 4666 
z
" transform="scale(0.015625)"/>
      <path id="DejaVuSans-3d" d="M 678 2906 
L 4684 2906 
L 4684 2381 
L 678 2381 
L 678 2906 
z
M 678 1631 
L 4684 1631 
L 4684 1100 
L 678 1100 
L 678 1631 
z
" transform="scale(0.015625)"/>
      <path id="DejaVuSans-2c" d="M 750 794 
L 1409 794 
L 1409 256 
L 897 -744 
L 494 -744 
L 750 256 
L 750 794 
z
" transform="scale(0.015625)"/>
      <path id="DejaVuSans-Oblique-3b1" d="M 2619 1628 
L 2622 2350 
Q 2625 3088 2069 3091 
Q 1653 3094 1394 2747 
Q 1069 2319 959 1747 
Q 825 1059 994 731 
Q 1169 397 1547 397 
Q 1966 397 2319 1063 
L 2619 1628 
z
M 2166 3578 
Q 3141 3594 3128 2584 
Q 3128 2584 3616 3500 
L 4128 3500 
L 3119 1603 
L 3109 919 
Q 3109 766 3194 638 
Q 3291 488 3391 488 
L 3669 488 
L 3575 0 
L 3228 0 
Q 2934 0 2722 263 
Q 2622 394 2619 669 
Q 2416 334 2066 50 
Q 1900 -81 1453 -78 
Q 722 -72 456 397 
Q 184 884 353 1747 
Q 534 2675 1009 3097 
Q 1544 3569 2166 3578 
z
" transform="scale(0.015625)"/>
      <path id="DejaVuSans-Oblique-4a" d="M 1069 4666 
L 1703 4666 
L 856 325 
Q 691 -522 298 -901 
Q -94 -1281 -800 -1281 
L -1050 -1281 
L -947 -750 
L -750 -750 
Q -328 -750 -109 -509 
Q 109 -269 225 325 
L 1069 4666 
z
" transform="scale(0.015625)"/>
      <path id="DejaVuSans-Oblique-7a" d="M 744 3500 
L 3475 3500 
L 3372 2975 
L 738 459 
L 2913 459 
L 2822 0 
L -19 0 
L 84 525 
L 2719 3041 
L 653 3041 
L 744 3500 
z
" transform="scale(0.015625)"/>
      <path id="DejaVuSans-Oblique-6c" d="M 1172 4863 
L 1747 4863 
L 800 0 
L 225 0 
L 1172 4863 
z
" transform="scale(0.015625)"/>
      <path id="DejaVuSans-Oblique-6f" d="M 1625 -91 
Q 1009 -91 651 289 
Q 294 669 294 1325 
Q 294 1706 417 2101 
Q 541 2497 738 2766 
Q 1047 3184 1428 3384 
Q 1809 3584 2291 3584 
Q 2888 3584 3255 3212 
Q 3622 2841 3622 2241 
Q 3622 1825 3500 1412 
Q 3378 1000 3181 728 
Q 2875 309 2494 109 
Q 2113 -91 1625 -91 
z
M 891 1344 
Q 891 869 1089 633 
Q 1288 397 1691 397 
Q 2269 397 2648 901 
Q 3028 1406 3028 2181 
Q 3028 2634 2825 2865 
Q 2622 3097 2228 3097 
Q 1903 3097 1650 2945 
Q 1397 2794 1197 2484 
Q 1050 2253 970 1956 
Q 891 1659 891 1344 
z
" transform="scale(0.015625)"/>
      <path id="DejaVuSans-Oblique-6e" d="M 3566 2113 
L 3156 0 
L 2578 0 
L 2988 2091 
Q 3016 2238 3031 2350 
Q 3047 2463 3047 2528 
Q 3047 2791 2881 2937 
Q 2716 3084 2419 3084 
Q 1956 3084 1622 2776 
Q 1288 2469 1184 1941 
L 800 0 
L 225 0 
L 903 3500 
L 1478 3500 
L 1363 2950 
Q 1603 3253 1940 3418 
Q 2278 3584 2650 3584 
Q 3113 3584 3367 3334 
Q 3622 3084 3622 2631 
Q 3622 2519 3608 2391 
Q 3594 2263 3566 2113 
z
" transform="scale(0.015625)"/>
      <path id="DejaVuSans-Oblique-67" d="M 3816 3500 
L 3219 434 
Q 3047 -456 2561 -893 
Q 2075 -1331 1253 -1331 
Q 950 -1331 690 -1286 
Q 431 -1241 206 -1147 
L 313 -588 
Q 525 -725 762 -790 
Q 1000 -856 1269 -856 
Q 1816 -856 2167 -557 
Q 2519 -259 2631 300 
L 2681 563 
Q 2441 288 2122 144 
Q 1803 0 1434 0 
Q 903 0 598 351 
Q 294 703 294 1319 
Q 294 1803 478 2267 
Q 663 2731 997 3091 
Q 1219 3328 1514 3456 
Q 1809 3584 2131 3584 
Q 2484 3584 2746 3420 
Q 3009 3256 3138 2956 
L 3238 3500 
L 3816 3500 
z
M 2950 2216 
Q 2950 2641 2750 2872 
Q 2550 3103 2181 3103 
Q 1953 3103 1747 3012 
Q 1541 2922 1394 2759 
Q 1156 2491 1023 2127 
Q 891 1763 891 1375 
Q 891 944 1092 712 
Q 1294 481 1672 481 
Q 2219 481 2584 976 
Q 2950 1472 2950 2216 
z
" transform="scale(0.015625)"/>
      <path id="DejaVuSans-2e" d="M 684 794 
L 1344 794 
L 1344 0 
L 684 0 
L 684 794 
z
" transform="scale(0.015625)"/>
     </defs>
     <use xlink:href="#DejaVuSans-Oblique-4e" transform="translate(0 0.78125)"/>
     <use xlink:href="#DejaVuSans-3d" transform="translate(94.287109 0.78125)"/>
     <use xlink:href="#DejaVuSans-31" transform="translate(197.558594 0.78125)"/>
     <use xlink:href="#DejaVuSans-30" transform="translate(261.181641 0.78125)"/>
     <use xlink:href="#DejaVuSans-2c" transform="translate(324.804688 0.78125)"/>
     <use xlink:href="#DejaVuSans-Oblique-3b1" transform="translate(376.074219 0.78125)"/>
     <use xlink:href="#DejaVuSans-3d" transform="translate(461.474609 0.78125)"/>
     <use xlink:href="#DejaVuSans-30" transform="translate(564.746094 0.78125)"/>
     <use xlink:href="#DejaVuSans-2c" transform="translate(628.369141 0.78125)"/>
     <use xlink:href="#DejaVuSans-Oblique-4a" transform="translate(679.638672 0.78125)"/>
     <use xlink:href="#DejaVuSans-Oblique-7a" transform="translate(709.130859 -15.625) scale(0.7)"/>
     <use xlink:href="#DejaVuSans-3d" transform="translate(768.09082 0.78125)"/>
     <use xlink:href="#DejaVuSans-31" transform="translate(871.362305 0.78125)"/>
     <use xlink:href="#DejaVuSans-2c" transform="translate(934.985352 0.78125)"/>
     <use xlink:href="#DejaVuSans-Oblique-4a" transform="translate(1002.490559 0.78125)"/>
     <use xlink:href="#DejaVuSans-Oblique-6c" transform="translate(1031.982747 -15.625) scale(0.7)"/>
     <use xlink:href="#DejaVuSans-Oblique-6f" transform="translate(1051.430989 -15.625) scale(0.7)"/>
     <use xlink:href="#DejaVuSans-Oblique-6e" transform="translate(1094.258137 -15.625) scale(0.7)"/>
     <use xlink:href="#DejaVuSans-Oblique-67" transform="translate(1138.623372 -15.625) scale(0.7)"/>
     <use xlink:href="#DejaVuSans-3d" transform="translate(1205.273762 0.78125)"/>
     <use xlink:href="#DejaVuSans-32" transform="translate(1308.545247 0.78125)"/>
     <use xlink:href="#DejaVuSans-2e" transform="translate(1372.168293 0.78125)"/>
     <use xlink:href="#DejaVuSans-30" transform="translate(1403.955403 0.78125)"/>
    </g>
   </g>
   <g id="legend_1">
    <g id="patch_7">
     <path d="M 77.949375 163.676 
L 141.639375 163.676 
Q 143.839375 163.676 143.839375 161.476 
L 143.839375 114.138187 
Q 143.839375 111.938187 141.639375 111.938187 
L 77.949375 111.938187 
Q 75.749375 111.938187 75.749375 114.138187 
L 75.749375 161.476 
Q 75.749375 163.676 77.949375 163.676 
z
" style="fill: #ffffff; opacity: 0.8; stroke: #cccccc; stroke-linejoin: miter"/>
    </g>
    <g id="line2d_38">
     <path d="M 80.149375 120.846469 
L 91.149375 120.846469 
L 102.149375 120.846469 
" style="fill: none; stroke: #000000; stroke-width: 1.5; stroke-linecap: square"/>
    </g>
    <g id="text_17">
     <!-- $(2;4)$ -->
     <g transform="translate(110.949375 124.696469) scale(0.11 -0.11)">
      <defs>
       <path id="DejaVuSans-28" d="M 1984 4856 
Q 1566 4138 1362 3434 
Q 1159 2731 1159 2009 
Q 1159 1288 1364 580 
Q 1569 -128 1984 -844 
L 1484 -844 
Q 1016 -109 783 600 
Q 550 1309 550 2009 
Q 550 2706 781 3412 
Q 1013 4119 1484 4856 
L 1984 4856 
z
" transform="scale(0.015625)"/>
       <path id="DejaVuSans-3b" d="M 750 3309 
L 1409 3309 
L 1409 2516 
L 750 2516 
L 750 3309 
z
M 750 794 
L 1409 794 
L 1409 256 
L 897 -744 
L 494 -744 
L 750 256 
L 750 794 
z
" transform="scale(0.015625)"/>
       <path id="DejaVuSans-29" d="M 513 4856 
L 1013 4856 
Q 1481 4119 1714 3412 
Q 1947 2706 1947 2009 
Q 1947 1309 1714 600 
Q 1481 -109 1013 -844 
L 513 -844 
Q 928 -128 1133 580 
Q 1338 1288 1338 2009 
Q 1338 2731 1133 3434 
Q 928 4138 513 4856 
z
" transform="scale(0.015625)"/>
      </defs>
      <use xlink:href="#DejaVuSans-28" transform="translate(0 0.125)"/>
      <use xlink:href="#DejaVuSans-32" transform="translate(39.013672 0.125)"/>
      <use xlink:href="#DejaVuSans-3b" transform="translate(102.636719 0.125)"/>
      <use xlink:href="#DejaVuSans-34" transform="translate(155.810547 0.125)"/>
      <use xlink:href="#DejaVuSans-29" transform="translate(219.433594 0.125)"/>
     </g>
    </g>
    <g id="line2d_39">
     <path d="M 80.149375 136.992406 
L 91.149375 136.992406 
L 102.149375 136.992406 
" style="fill: none; stroke: #ff0000; stroke-width: 1.5; stroke-linecap: square"/>
    </g>
    <g id="text_18">
     <!-- $(2;)$ -->
     <g transform="translate(110.949375 140.842406) scale(0.11 -0.11)">
      <use xlink:href="#DejaVuSans-28" transform="translate(0 0.125)"/>
      <use xlink:href="#DejaVuSans-32" transform="translate(39.013672 0.125)"/>
      <use xlink:href="#DejaVuSans-3b" transform="translate(102.636719 0.125)"/>
      <use xlink:href="#DejaVuSans-29" transform="translate(155.810547 0.125)"/>
     </g>
    </g>
    <g id="line2d_40">
     <path d="M 80.149375 153.138344 
L 91.149375 153.138344 
L 102.149375 153.138344 
" style="fill: none; stroke: #0000ff; stroke-width: 1.5; stroke-linecap: square"/>
    </g>
    <g id="text_19">
     <!-- $(4;)$ -->
     <g transform="translate(110.949375 156.988344) scale(0.11 -0.11)">
      <use xlink:href="#DejaVuSans-28" transform="translate(0 0.125)"/>
      <use xlink:href="#DejaVuSans-34" transform="translate(39.013672 0.125)"/>
      <use xlink:href="#DejaVuSans-3b" transform="translate(102.636719 0.125)"/>
      <use xlink:href="#DejaVuSans-29" transform="translate(155.810547 0.125)"/>
     </g>
    </g>
   </g>
  </g>
 </g>
 <defs>
  <clipPath id="p0cadf4bc67">
   <rect x="70.249375" y="23.7" width="268.508888" height="145.476"/>
  </clipPath>
 </defs>
</svg>
