<?xml version="1.0" encoding="utf-8" standalone="no"?>
<!DOCTYPE svg PUBLIC "-//W3C//DTD SVG 1.1//EN"
  "http://www.w3.org/Graphics/SVG/1.1/DTD/svg11.dtd">
<svg xmlns:xlink="http://www.w3.org/1999/xlink" width="352.320763pt" height="207.1035pt" viewBox="0 0 352.320763 207.1035" xmlns="http://www.w3.org/2000/svg" version="1.1">
 <metadata>
  <rdf:RDF xmlns:dc="http://purl.org/dc/elements/1.1/" xmlns:cc="http://creativecommons.org/ns#" xmlns:rdf="http://www.w3.org/1999/02/22-rdf-syntax-ns#">
   <cc:Work>
    <dc:type rdf:resource="http://purl.org/dc/dcmitype/StillImage"/>
    <dc:date>2025-09-30T16:36:49.910489</dc:date>
    <dc:format>image/svg+xml</dc:format>
    <dc:creator>
     <cc:Agent>
      <dc:title>Matplotlib v3.9.1, https://matplotlib.org/</dc:title>
     </cc:Agent>
    </dc:creator>
   </cc:Work>
  </rdf:RDF>
 </metadata>
 <defs>
  <style type="text/css">*{stroke-linejoin: round; stroke-linecap: butt}</style>
 </defs>
 <g id="figure_1">
  <g id="patch_1">
   <path d="M 0 207.1035 
L 352.320763 207.1035 
L 352.320763 0 
L 0 0 
z
" style="fill: #ffffff"/>
  </g>
  <g id="axes_1">
   <g id="patch_2">
    <path d="M 70.249375 169.176 
L 338.758263 169.176 
L 338.758263 23.7 
L 70.249375 23.7 
z
" style="fill: #ffffff"/>
   </g>
   <g id="matplotlib.axis_1">
    <g id="xtick_1">
     <g id="line2d_1">
      <defs>
       <path id="me67971714e" d="M 0 0 
L 0 -3.5 
" style="stroke: #000000; stroke-width: 0.8"/>
      </defs>
      <g>
       <use xlink:href="#me67971714e" x="70.249375" y="169.176" style="stroke: #000000; stroke-width: 0.8"/>
      </g>
     </g>
     <g id="line2d_2">
      <defs>
       <path id="m440300e686" d="M 0 0 
L 0 3.5 
" style="stroke: #000000; stroke-width: 0.8"/>
      </defs>
      <g>
       <use xlink:href="#m440300e686" x="70.249375" y="23.7" style="stroke: #000000; stroke-width: 0.8"/>
      </g>
     </g>
     <g id="text_1">
      <!-- 0 -->
      <g transform="translate(67.068125 180.274438) scale(0.1 -0.1)">
       <defs>
        <path id="DejaVuSans-30" d="M 2034 4250 
Q 1547 4250 1301 3770 
Q 1056 3291 1056 2328 
Q 1056 1369 1301 889 
Q 1547 409 2034 409 
Q 2525 409 2770 889 
Q 3016 1369 3016 2328 
Q 3016 3291 2770 3770 
Q 2525 4250 2034 4250 
z
M 2034 4750 
Q 2819 4750 3233 4129 
Q 3647 3509 3647 2328 
Q 3647 1150 3233 529 
Q 2819 -91 2034 -91 
Q 1250 -91 836 529 
Q 422 1150 422 2328 
Q 422 3509 836 4129 
Q 1250 4750 2034 4750 
z
" transform="scale(0.015625)"/>
       </defs>
       <use xlink:href="#DejaVuSans-30"/>
      </g>
     </g>
    </g>
    <g id="xtick_2">
     <g id="line2d_3">
      <g>
       <use xlink:href="#me67971714e" x="115.000856" y="169.176" style="stroke: #000000; stroke-width: 0.8"/>
      </g>
     </g>
     <g id="line2d_4">
      <g>
       <use xlink:href="#m440300e686" x="115.000856" y="23.7" style="stroke: #000000; stroke-width: 0.8"/>
      </g>
     </g>
     <g id="text_2">
      <!-- 5 -->
      <g transform="translate(111.819606 180.274438) scale(0.1 -0.1)">
       <defs>
        <path id="DejaVuSans-35" d="M 691 4666 
L 3169 4666 
L 3169 4134 
L 1269 4134 
L 1269 2991 
Q 1406 3038 1543 3061 
Q 1681 3084 1819 3084 
Q 2600 3084 3056 2656 
Q 3513 2228 3513 1497 
Q 3513 744 3044 326 
Q 2575 -91 1722 -91 
Q 1428 -91 1123 -41 
Q 819 9 494 109 
L 494 744 
Q 775 591 1075 516 
Q 1375 441 1709 441 
Q 2250 441 2565 725 
Q 2881 1009 2881 1497 
Q 2881 1984 2565 2268 
Q 2250 2553 1709 2553 
Q 1456 2553 1204 2497 
Q 953 2441 691 2322 
L 691 4666 
z
" transform="scale(0.015625)"/>
       </defs>
       <use xlink:href="#DejaVuSans-35"/>
      </g>
     </g>
    </g>
    <g id="xtick_3">
     <g id="line2d_5">
      <g>
       <use xlink:href="#me67971714e" x="159.752338" y="169.176" style="stroke: #000000; stroke-width: 0.8"/>
      </g>
     </g>
     <g id="line2d_6">
      <g>
       <use xlink:href="#m440300e686" x="159.752338" y="23.7" style="stroke: #000000; stroke-width: 0.8"/>
      </g>
     </g>
     <g id="text_3">
      <!-- 10 -->
      <g transform="translate(153.389838 180.274438) scale(0.1 -0.1)">
       <defs>
        <path id="DejaVuSans-31" d="M 794 531 
L 1825 531 
L 1825 4091 
L 703 3866 
L 703 4441 
L 1819 4666 
L 2450 4666 
L 2450 531 
L 3481 531 
L 3481 0 
L 794 0 
L 794 531 
z
" transform="scale(0.015625)"/>
       </defs>
       <use xlink:href="#DejaVuSans-31"/>
       <use xlink:href="#DejaVuSans-30" x="63.623047"/>
      </g>
     </g>
    </g>
    <g id="xtick_4">
     <g id="line2d_7">
      <g>
       <use xlink:href="#me67971714e" x="204.503819" y="169.176" style="stroke: #000000; stroke-width: 0.8"/>
      </g>
     </g>
     <g id="line2d_8">
      <g>
       <use xlink:href="#m440300e686" x="204.503819" y="23.7" style="stroke: #000000; stroke-width: 0.8"/>
      </g>
     </g>
     <g id="text_4">
      <!-- 15 -->
      <g transform="translate(198.141319 180.274438) scale(0.1 -0.1)">
       <use xlink:href="#DejaVuSans-31"/>
       <use xlink:href="#DejaVuSans-35" x="63.623047"/>
      </g>
     </g>
    </g>
    <g id="xtick_5">
     <g id="line2d_9">
      <g>
       <use xlink:href="#me67971714e" x="249.255301" y="169.176" style="stroke: #000000; stroke-width: 0.8"/>
      </g>
     </g>
     <g id="line2d_10">
      <g>
       <use xlink:href="#m440300e686" x="249.255301" y="23.7" style="stroke: #000000; stroke-width: 0.8"/>
      </g>
     </g>
     <g id="text_5">
      <!-- 20 -->
      <g transform="translate(242.892801 180.274438) scale(0.1 -0.1)">
       <defs>
        <path id="DejaVuSans-32" d="M 1228 531 
L 3431 531 
L 3431 0 
L 469 0 
L 469 531 
Q 828 903 1448 1529 
Q 2069 2156 2228 2338 
Q 2531 2678 2651 2914 
Q 2772 3150 2772 3378 
Q 2772 3750 2511 3984 
Q 2250 4219 1831 4219 
Q 1534 4219 1204 4116 
Q 875 4013 500 3803 
L 500 4441 
Q 881 4594 1212 4672 
Q 1544 4750 1819 4750 
Q 2544 4750 2975 4387 
Q 3406 4025 3406 3419 
Q 3406 3131 3298 2873 
Q 3191 2616 2906 2266 
Q 2828 2175 2409 1742 
Q 1991 1309 1228 531 
z
" transform="scale(0.015625)"/>
       </defs>
       <use xlink:href="#DejaVuSans-32"/>
       <use xlink:href="#DejaVuSans-30" x="63.623047"/>
      </g>
     </g>
    </g>
    <g id="xtick_6">
     <g id="line2d_11">
      <g>
       <use xlink:href="#me67971714e" x="294.006782" y="169.176" style="stroke: #000000; stroke-width: 0.8"/>
      </g>
     </g>
     <g id="line2d_12">
      <g>
       <use xlink:href="#m440300e686" x="294.006782" y="23.7" style="stroke: #000000; stroke-width: 0.8"/>
      </g>
     </g>
     <g id="text_6">
      <!-- 25 -->
      <g transform="translate(287.644282 180.274438) scale(0.1 -0.1)">
       <use xlink:href="#DejaVuSans-32"/>
       <use xlink:href="#DejaVuSans-35" x="63.623047"/>
      </g>
     </g>
    </g>
    <g id="xtick_7">
     <g id="line2d_13">
      <g>
       <use xlink:href="#me67971714e" x="338.758263" y="169.176" style="stroke: #000000; stroke-width: 0.8"/>
      </g>
     </g>
     <g id="line2d_14">
      <g>
       <use xlink:href="#m440300e686" x="338.758263" y="23.7" style="stroke: #000000; stroke-width: 0.8"/>
      </g>
     </g>
     <g id="text_7">
      <!-- 30 -->
      <g transform="translate(332.395763 180.274438) scale(0.1 -0.1)">
       <defs>
        <path id="DejaVuSans-33" d="M 2597 2516 
Q 3050 2419 3304 2112 
Q 3559 1806 3559 1356 
Q 3559 666 3084 287 
Q 2609 -91 1734 -91 
Q 1441 -91 1130 -33 
Q 819 25 488 141 
L 488 750 
Q 750 597 1062 519 
Q 1375 441 1716 441 
Q 2309 441 2620 675 
Q 2931 909 2931 1356 
Q 2931 1769 2642 2001 
Q 2353 2234 1838 2234 
L 1294 2234 
L 1294 2753 
L 1863 2753 
Q 2328 2753 2575 2939 
Q 2822 3125 2822 3475 
Q 2822 3834 2567 4026 
Q 2313 4219 1838 4219 
Q 1578 4219 1281 4162 
Q 984 4106 628 3988 
L 628 4550 
Q 988 4650 1302 4700 
Q 1616 4750 1894 4750 
Q 2613 4750 3031 4423 
Q 3450 4097 3450 3541 
Q 3450 3153 3228 2886 
Q 3006 2619 2597 2516 
z
" transform="scale(0.015625)"/>
       </defs>
       <use xlink:href="#DejaVuSans-33"/>
       <use xlink:href="#DejaVuSans-30" x="63.623047"/>
      </g>
     </g>
    </g>
    <g id="text_8">
     <!-- Time -->
     <g transform="translate(187.376788 196.991938) scale(0.14 -0.14)">
      <defs>
       <path id="DejaVuSans-54" d="M -19 4666 
L 3928 4666 
L 3928 4134 
L 2272 4134 
L 2272 0 
L 1638 0 
L 1638 4134 
L -19 4134 
L -19 4666 
z
" transform="scale(0.015625)"/>
       <path id="DejaVuSans-69" d="M 603 3500 
L 1178 3500 
L 1178 0 
L 603 0 
L 603 3500 
z
M 603 4863 
L 1178 4863 
L 1178 4134 
L 603 4134 
L 603 4863 
z
" transform="scale(0.015625)"/>
       <path id="DejaVuSans-6d" d="M 3328 2828 
Q 3544 3216 3844 3400 
Q 4144 3584 4550 3584 
Q 5097 3584 5394 3201 
Q 5691 2819 5691 2113 
L 5691 0 
L 5113 0 
L 5113 2094 
Q 5113 2597 4934 2840 
Q 4756 3084 4391 3084 
Q 3944 3084 3684 2787 
Q 3425 2491 3425 1978 
L 3425 0 
L 2847 0 
L 2847 2094 
Q 2847 2600 2669 2842 
Q 2491 3084 2119 3084 
Q 1678 3084 1418 2786 
Q 1159 2488 1159 1978 
L 1159 0 
L 581 0 
L 581 3500 
L 1159 3500 
L 1159 2956 
Q 1356 3278 1631 3431 
Q 1906 3584 2284 3584 
Q 2666 3584 2933 3390 
Q 3200 3197 3328 2828 
z
" transform="scale(0.015625)"/>
       <path id="DejaVuSans-65" d="M 3597 1894 
L 3597 1613 
L 953 1613 
Q 991 1019 1311 708 
Q 1631 397 2203 397 
Q 2534 397 2845 478 
Q 3156 559 3463 722 
L 3463 178 
Q 3153 47 2828 -22 
Q 2503 -91 2169 -91 
Q 1331 -91 842 396 
Q 353 884 353 1716 
Q 353 2575 817 3079 
Q 1281 3584 2069 3584 
Q 2775 3584 3186 3129 
Q 3597 2675 3597 1894 
z
M 3022 2063 
Q 3016 2534 2758 2815 
Q 2500 3097 2075 3097 
Q 1594 3097 1305 2825 
Q 1016 2553 972 2059 
L 3022 2063 
z
" transform="scale(0.015625)"/>
      </defs>
      <use xlink:href="#DejaVuSans-54"/>
      <use xlink:href="#DejaVuSans-69" x="57.958984"/>
      <use xlink:href="#DejaVuSans-6d" x="85.742188"/>
      <use xlink:href="#DejaVuSans-65" x="183.154297"/>
     </g>
    </g>
   </g>
   <g id="matplotlib.axis_2">
    <g id="ytick_1">
     <g id="line2d_15">
      <defs>
       <path id="m3c8bf1aead" d="M 0 0 
L 3.5 0 
" style="stroke: #000000; stroke-width: 0.8"/>
      </defs>
      <g>
       <use xlink:href="#m3c8bf1aead" x="70.249375" y="169.176" style="stroke: #000000; stroke-width: 0.8"/>
      </g>
     </g>
     <g id="line2d_16">
      <defs>
       <path id="mbb559aaaf2" d="M 0 0 
L -3.5 0 
" style="stroke: #000000; stroke-width: 0.8"/>
      </defs>
      <g>
       <use xlink:href="#mbb559aaaf2" x="338.758263" y="169.176" style="stroke: #000000; stroke-width: 0.8"/>
      </g>
     </g>
     <g id="text_9">
      <!-- $\mathdefault{10^{-1}}$ -->
      <g transform="translate(43.249375 172.975219) scale(0.1 -0.1)">
       <defs>
        <path id="DejaVuSans-2212" d="M 678 2272 
L 4684 2272 
L 4684 1741 
L 678 1741 
L 678 2272 
z
" transform="scale(0.015625)"/>
       </defs>
       <use xlink:href="#DejaVuSans-31" transform="translate(0 0.684375)"/>
       <use xlink:href="#DejaVuSans-30" transform="translate(63.623047 0.684375)"/>
       <use xlink:href="#DejaVuSans-2212" transform="translate(128.203125 38.965625) scale(0.7)"/>
       <use xlink:href="#DejaVuSans-31" transform="translate(186.855469 38.965625) scale(0.7)"/>
      </g>
     </g>
    </g>
    <g id="ytick_2">
     <g id="line2d_17">
      <g>
       <use xlink:href="#m3c8bf1aead" x="70.249375" y="23.7" style="stroke: #000000; stroke-width: 0.8"/>
      </g>
     </g>
     <g id="line2d_18">
      <g>
       <use xlink:href="#mbb559aaaf2" x="338.758263" y="23.7" style="stroke: #000000; stroke-width: 0.8"/>
      </g>
     </g>
     <g id="text_10">
      <!-- $\mathdefault{10^{0}}$ -->
      <g transform="translate(49.149375 27.499219) scale(0.1 -0.1)">
       <use xlink:href="#DejaVuSans-31" transform="translate(0 0.765625)"/>
       <use xlink:href="#DejaVuSans-30" transform="translate(63.623047 0.765625)"/>
       <use xlink:href="#DejaVuSans-30" transform="translate(128.203125 39.046875) scale(0.7)"/>
      </g>
     </g>
    </g>
    <g id="ytick_3">
     <g id="line2d_19">
      <defs>
       <path id="m83b6f7ec4b" d="M 0 0 
L 2 0 
" style="stroke: #000000; stroke-width: 0.6"/>
      </defs>
      <g>
       <use xlink:href="#m83b6f7ec4b" x="70.249375" y="125.38336" style="stroke: #000000; stroke-width: 0.6"/>
      </g>
     </g>
     <g id="line2d_20">
      <defs>
       <path id="m324a67e958" d="M 0 0 
L -2 0 
" style="stroke: #000000; stroke-width: 0.6"/>
      </defs>
      <g>
       <use xlink:href="#m324a67e958" x="338.758263" y="125.38336" style="stroke: #000000; stroke-width: 0.6"/>
      </g>
     </g>
     <g id="text_11">
      <!-- $\mathdefault{2\times10^{-1}}$ -->
      <g transform="translate(24.749375 129.182579) scale(0.1 -0.1)">
       <defs>
        <path id="DejaVuSans-d7" d="M 4488 3438 
L 3059 2003 
L 4488 575 
L 4116 197 
L 2681 1631 
L 1247 197 
L 878 575 
L 2303 2003 
L 878 3438 
L 1247 3816 
L 2681 2381 
L 4116 3816 
L 4488 3438 
z
" transform="scale(0.015625)"/>
       </defs>
       <use xlink:href="#DejaVuSans-32" transform="translate(0 0.684375)"/>
       <use xlink:href="#DejaVuSans-d7" transform="translate(83.105469 0.684375)"/>
       <use xlink:href="#DejaVuSans-31" transform="translate(186.376953 0.684375)"/>
       <use xlink:href="#DejaVuSans-30" transform="translate(250 0.684375)"/>
       <use xlink:href="#DejaVuSans-2212" transform="translate(314.580078 38.965625) scale(0.7)"/>
       <use xlink:href="#DejaVuSans-31" transform="translate(373.232422 38.965625) scale(0.7)"/>
      </g>
     </g>
    </g>
    <g id="ytick_4">
     <g id="line2d_21">
      <g>
       <use xlink:href="#m83b6f7ec4b" x="70.249375" y="99.766308" style="stroke: #000000; stroke-width: 0.6"/>
      </g>
     </g>
     <g id="line2d_22">
      <g>
       <use xlink:href="#m324a67e958" x="338.758263" y="99.766308" style="stroke: #000000; stroke-width: 0.6"/>
      </g>
     </g>
     <g id="text_12">
      <!-- $\mathdefault{3\times10^{-1}}$ -->
      <g transform="translate(24.749375 103.565527) scale(0.1 -0.1)">
       <use xlink:href="#DejaVuSans-33" transform="translate(0 0.684375)"/>
       <use xlink:href="#DejaVuSans-d7" transform="translate(83.105469 0.684375)"/>
       <use xlink:href="#DejaVuSans-31" transform="translate(186.376953 0.684375)"/>
       <use xlink:href="#DejaVuSans-30" transform="translate(250 0.684375)"/>
       <use xlink:href="#DejaVuSans-2212" transform="translate(314.580078 38.965625) scale(0.7)"/>
       <use xlink:href="#DejaVuSans-31" transform="translate(373.232422 38.965625) scale(0.7)"/>
      </g>
     </g>
    </g>
    <g id="ytick_5">
     <g id="line2d_23">
      <g>
       <use xlink:href="#m83b6f7ec4b" x="70.249375" y="81.590721" style="stroke: #000000; stroke-width: 0.6"/>
      </g>
     </g>
     <g id="line2d_24">
      <g>
       <use xlink:href="#m324a67e958" x="338.758263" y="81.590721" style="stroke: #000000; stroke-width: 0.6"/>
      </g>
     </g>
     <g id="text_13">
      <!-- $\mathdefault{4\times10^{-1}}$ -->
      <g transform="translate(24.749375 85.389939) scale(0.1 -0.1)">
       <defs>
        <path id="DejaVuSans-34" d="M 2419 4116 
L 825 1625 
L 2419 1625 
L 2419 4116 
z
M 2253 4666 
L 3047 4666 
L 3047 1625 
L 3713 1625 
L 3713 1100 
L 3047 1100 
L 3047 0 
L 2419 0 
L 2419 1100 
L 313 1100 
L 313 1709 
L 2253 4666 
z
" transform="scale(0.015625)"/>
       </defs>
       <use xlink:href="#DejaVuSans-34" transform="translate(0 0.684375)"/>
       <use xlink:href="#DejaVuSans-d7" transform="translate(83.105469 0.684375)"/>
       <use xlink:href="#DejaVuSans-31" transform="translate(186.376953 0.684375)"/>
       <use xlink:href="#DejaVuSans-30" transform="translate(250 0.684375)"/>
       <use xlink:href="#DejaVuSans-2212" transform="translate(314.580078 38.965625) scale(0.7)"/>
       <use xlink:href="#DejaVuSans-31" transform="translate(373.232422 38.965625) scale(0.7)"/>
      </g>
     </g>
    </g>
    <g id="ytick_6">
     <g id="line2d_25">
      <g>
       <use xlink:href="#m83b6f7ec4b" x="70.249375" y="67.49264" style="stroke: #000000; stroke-width: 0.6"/>
      </g>
     </g>
     <g id="line2d_26">
      <g>
       <use xlink:href="#m324a67e958" x="338.758263" y="67.49264" style="stroke: #000000; stroke-width: 0.6"/>
      </g>
     </g>
    </g>
    <g id="ytick_7">
     <g id="line2d_27">
      <g>
       <use xlink:href="#m83b6f7ec4b" x="70.249375" y="55.973669" style="stroke: #000000; stroke-width: 0.6"/>
      </g>
     </g>
     <g id="line2d_28">
      <g>
       <use xlink:href="#m324a67e958" x="338.758263" y="55.973669" style="stroke: #000000; stroke-width: 0.6"/>
      </g>
     </g>
     <g id="text_14">
      <!-- $\mathdefault{6\times10^{-1}}$ -->
      <g transform="translate(24.749375 59.772887) scale(0.1 -0.1)">
       <defs>
        <path id="DejaVuSans-36" d="M 2113 2584 
Q 1688 2584 1439 2293 
Q 1191 2003 1191 1497 
Q 1191 994 1439 701 
Q 1688 409 2113 409 
Q 2538 409 2786 701 
Q 3034 994 3034 1497 
Q 3034 2003 2786 2293 
Q 2538 2584 2113 2584 
z
M 3366 4563 
L 3366 3988 
Q 3128 4100 2886 4159 
Q 2644 4219 2406 4219 
Q 1781 4219 1451 3797 
Q 1122 3375 1075 2522 
Q 1259 2794 1537 2939 
Q 1816 3084 2150 3084 
Q 2853 3084 3261 2657 
Q 3669 2231 3669 1497 
Q 3669 778 3244 343 
Q 2819 -91 2113 -91 
Q 1303 -91 875 529 
Q 447 1150 447 2328 
Q 447 3434 972 4092 
Q 1497 4750 2381 4750 
Q 2619 4750 2861 4703 
Q 3103 4656 3366 4563 
z
" transform="scale(0.015625)"/>
       </defs>
       <use xlink:href="#DejaVuSans-36" transform="translate(0 0.684375)"/>
       <use xlink:href="#DejaVuSans-d7" transform="translate(83.105469 0.684375)"/>
       <use xlink:href="#DejaVuSans-31" transform="translate(186.376953 0.684375)"/>
       <use xlink:href="#DejaVuSans-30" transform="translate(250 0.684375)"/>
       <use xlink:href="#DejaVuSans-2212" transform="translate(314.580078 38.965625) scale(0.7)"/>
       <use xlink:href="#DejaVuSans-31" transform="translate(373.232422 38.965625) scale(0.7)"/>
      </g>
     </g>
    </g>
    <g id="ytick_8">
     <g id="line2d_29">
      <g>
       <use xlink:href="#m83b6f7ec4b" x="70.249375" y="46.234518" style="stroke: #000000; stroke-width: 0.6"/>
      </g>
     </g>
     <g id="line2d_30">
      <g>
       <use xlink:href="#m324a67e958" x="338.758263" y="46.234518" style="stroke: #000000; stroke-width: 0.6"/>
      </g>
     </g>
    </g>
    <g id="ytick_9">
     <g id="line2d_31">
      <g>
       <use xlink:href="#m83b6f7ec4b" x="70.249375" y="37.798081" style="stroke: #000000; stroke-width: 0.6"/>
      </g>
     </g>
     <g id="line2d_32">
      <g>
       <use xlink:href="#m324a67e958" x="338.758263" y="37.798081" style="stroke: #000000; stroke-width: 0.6"/>
      </g>
     </g>
    </g>
    <g id="ytick_10">
     <g id="line2d_33">
      <g>
       <use xlink:href="#m83b6f7ec4b" x="70.249375" y="30.356617" style="stroke: #000000; stroke-width: 0.6"/>
      </g>
     </g>
     <g id="line2d_34">
      <g>
       <use xlink:href="#m324a67e958" x="338.758263" y="30.356617" style="stroke: #000000; stroke-width: 0.6"/>
      </g>
     </g>
    </g>
    <g id="text_15">
     <!-- Fidelity -->
     <g transform="translate(17.837813 121.429094) rotate(-90) scale(0.14 -0.14)">
      <defs>
       <path id="DejaVuSans-46" d="M 628 4666 
L 3309 4666 
L 3309 4134 
L 1259 4134 
L 1259 2759 
L 3109 2759 
L 3109 2228 
L 1259 2228 
L 1259 0 
L 628 0 
L 628 4666 
z
" transform="scale(0.015625)"/>
       <path id="DejaVuSans-64" d="M 2906 2969 
L 2906 4863 
L 3481 4863 
L 3481 0 
L 2906 0 
L 2906 525 
Q 2725 213 2448 61 
Q 2172 -91 1784 -91 
Q 1150 -91 751 415 
Q 353 922 353 1747 
Q 353 2572 751 3078 
Q 1150 3584 1784 3584 
Q 2172 3584 2448 3432 
Q 2725 3281 2906 2969 
z
M 947 1747 
Q 947 1113 1208 752 
Q 1469 391 1925 391 
Q 2381 391 2643 752 
Q 2906 1113 2906 1747 
Q 2906 2381 2643 2742 
Q 2381 3103 1925 3103 
Q 1469 3103 1208 2742 
Q 947 2381 947 1747 
z
" transform="scale(0.015625)"/>
       <path id="DejaVuSans-6c" d="M 603 4863 
L 1178 4863 
L 1178 0 
L 603 0 
L 603 4863 
z
" transform="scale(0.015625)"/>
       <path id="DejaVuSans-74" d="M 1172 4494 
L 1172 3500 
L 2356 3500 
L 2356 3053 
L 1172 3053 
L 1172 1153 
Q 1172 725 1289 603 
Q 1406 481 1766 481 
L 2356 481 
L 2356 0 
L 1766 0 
Q 1100 0 847 248 
Q 594 497 594 1153 
L 594 3053 
L 172 3053 
L 172 3500 
L 594 3500 
L 594 4494 
L 1172 4494 
z
" transform="scale(0.015625)"/>
       <path id="DejaVuSans-79" d="M 2059 -325 
Q 1816 -950 1584 -1140 
Q 1353 -1331 966 -1331 
L 506 -1331 
L 506 -850 
L 844 -850 
Q 1081 -850 1212 -737 
Q 1344 -625 1503 -206 
L 1606 56 
L 191 3500 
L 800 3500 
L 1894 763 
L 2988 3500 
L 3597 3500 
L 2059 -325 
z
" transform="scale(0.015625)"/>
      </defs>
      <use xlink:href="#DejaVuSans-46"/>
      <use xlink:href="#DejaVuSans-69" x="50.269531"/>
      <use xlink:href="#DejaVuSans-64" x="78.052734"/>
      <use xlink:href="#DejaVuSans-65" x="141.529297"/>
      <use xlink:href="#DejaVuSans-6c" x="203.052734"/>
      <use xlink:href="#DejaVuSans-69" x="230.835938"/>
      <use xlink:href="#DejaVuSans-74" x="258.619141"/>
      <use xlink:href="#DejaVuSans-79" x="297.828125"/>
     </g>
    </g>
   </g>
   <g id="line2d_35">
    <path d="M 70.249375 23.7 
L 71.144405 28.644898 
L 72.039434 42.085016 
L 72.934464 59.535941 
L 73.829494 74.477517 
L 74.724523 83.254631 
L 75.619553 87.38073 
L 76.514582 89.301706 
L 77.409612 90.483331 
L 78.304642 92.292093 
L 79.199671 95.422234 
L 80.989731 102.487512 
L 84.569849 113.314496 
L 87.254938 122.345067 
L 89.044997 129.678241 
L 89.940027 131.795455 
L 90.835056 131.254089 
L 91.730086 130.447389 
L 92.625116 133.613267 
L 93.520145 142.505522 
L 94.415175 153.477925 
L 95.310205 158.94417 
L 96.205234 156.12368 
L 97.100264 149.138118 
L 99.785353 124.605065 
L 100.680382 123.934342 
L 101.575412 131.439824 
L 103.365471 157.929286 
L 104.260501 164.166982 
L 105.155531 165.477321 
L 106.05056 167.309719 
L 106.94559 172.07643 
L 108.735649 187.408896 
L 109.630679 192.860864 
L 110.525708 192.556442 
L 112.315768 181.754094 
L 113.210797 178.793858 
L 114.105827 179.330974 
L 115.000856 182.668105 
L 116.790916 192.788293 
L 117.685945 198.442393 
L 118.713693 208.1035 
M 126.594875 208.1035 
L 126.636242 207.861064 
L 127.531271 195.020591 
L 128.426301 180.355725 
L 129.32133 168.394272 
L 130.21636 160.282773 
L 131.11139 156.213157 
L 132.006419 156.197206 
L 132.901449 158.584646 
L 133.796479 159.427463 
L 134.691508 156.320284 
L 135.586538 152.107643 
L 136.481567 150.922907 
L 137.376597 153.3883 
L 138.271627 156.879462 
L 139.166656 158.972655 
L 140.061686 159.521205 
L 140.956716 158.903883 
L 141.851745 156.759962 
L 142.746775 152.991931 
L 143.641805 147.908853 
L 146.326893 128.939394 
L 147.221923 126.172643 
L 148.116953 127.491373 
L 149.011982 133.232261 
L 149.907012 142.907776 
L 150.802042 153.994013 
L 151.697071 161.452683 
L 152.592101 162.73532 
L 153.48713 162.568366 
L 154.38216 167.156553 
L 156.172219 188.224411 
L 157.067249 191.19814 
L 157.962279 185.675748 
L 158.857308 177.451624 
L 159.752338 170.920233 
L 160.647367 167.333646 
L 161.542397 165.7227 
L 162.437427 163.712218 
L 163.332456 159.412845 
L 164.227486 153.5968 
L 165.122516 149.199339 
L 166.017545 148.672852 
L 166.912575 152.006457 
L 167.807604 156.394556 
L 168.702634 158.500285 
L 169.597664 158.327113 
L 170.492693 159.091032 
L 171.387723 163.401239 
L 174.072812 185.824405 
L 174.967842 188.402316 
L 175.862871 189.855278 
L 176.757901 192.87833 
L 177.65293 197.552085 
L 178.54796 200.733498 
L 179.44299 198.752397 
L 181.233049 184.793507 
L 182.128079 180.896455 
L 183.023108 182.206729 
L 183.918138 188.914875 
L 185.492992 208.1035 
M 211.545525 208.1035 
L 212.559086 191.99456 
L 213.454116 181.385108 
L 214.349145 174.303378 
L 216.139204 162.914159 
L 217.034234 156.922121 
L 217.929264 153.706997 
L 218.824293 155.729743 
L 219.719323 162.747874 
L 220.614353 170.937121 
L 221.509382 174.373308 
L 222.404412 170.326806 
L 224.194471 154.311295 
L 225.089501 150.084662 
L 225.98453 149.797161 
L 227.77459 153.840181 
L 228.669619 152.994865 
L 229.564649 148.902994 
L 230.459678 143.177236 
L 231.354708 138.236904 
L 232.249738 135.819047 
L 233.144767 135.910781 
L 234.039797 136.550644 
L 234.934827 135.532028 
L 235.829856 133.022292 
L 236.724886 131.356089 
L 237.619915 132.500757 
L 238.514945 136.943158 
L 239.409975 144.044341 
L 240.305004 152.112947 
L 241.200034 158.297854 
L 242.095064 160.344273 
L 242.990093 159.120122 
L 244.780153 155.129494 
L 245.675182 151.197999 
L 247.465241 138.078364 
L 248.360271 135.0255 
L 249.255301 136.364318 
L 250.15033 139.587356 
L 251.04536 140.871565 
L 251.94039 138.627602 
L 253.730449 128.947749 
L 254.625478 125.409269 
L 255.520508 125.159156 
L 256.415538 127.910172 
L 257.310567 130.241684 
L 258.205597 128.47591 
L 259.100627 123.680148 
L 259.995656 120.206187 
L 260.890686 120.568116 
L 261.785715 124.083637 
L 262.680745 128.220981 
L 263.575775 130.343769 
L 264.470804 129.161685 
L 268.050923 114.808571 
L 268.945952 110.547623 
L 269.840982 107.479078 
L 270.736012 107.781034 
L 271.631041 111.663464 
L 272.526071 117.581539 
L 273.421101 124.414702 
L 274.31613 132.749094 
L 276.106189 153.68425 
L 277.001219 160.587012 
L 277.896249 162.918736 
L 278.791278 163.801517 
L 280.581338 167.425759 
L 281.476367 167.10395 
L 284.161456 160.697405 
L 285.056486 158.650931 
L 285.951515 156.941379 
L 286.846545 157.120707 
L 287.741575 158.934499 
L 288.636604 159.176725 
L 289.531634 155.75375 
L 290.426664 151.759954 
L 291.321693 152.025236 
L 292.216723 158.538714 
L 294.006782 181.057903 
L 294.901812 188.398034 
L 295.796841 190.864192 
L 296.691871 190.932802 
L 297.586901 189.55886 
L 298.48193 184.018438 
L 300.271989 160.755439 
L 301.167019 152.93523 
L 302.062049 151.490527 
L 302.957078 155.088534 
L 306.537197 178.698292 
L 307.432226 183.667013 
L 308.327256 189.674114 
L 309.222286 199.022371 
L 309.850966 208.1035 
M 313.229798 208.1035 
L 313.697434 201.185919 
L 314.592464 191.008626 
L 315.487493 184.902002 
L 316.382523 181.691676 
L 317.277552 180.837158 
L 318.172582 183.336502 
L 319.067612 189.899993 
L 319.962641 198.285956 
L 320.857671 203.466404 
L 321.752701 203.001732 
L 323.54276 195.96252 
L 324.437789 191.542863 
L 325.332819 185.478355 
L 328.912938 157.194359 
L 331.598026 129.283204 
L 332.493056 122.76403 
L 335.178145 106.247203 
L 336.073175 102.900229 
L 336.968204 103.055334 
L 337.863234 106.624484 
L 338.758263 113.092543 
L 338.758263 113.092543 
" clip-path="url(#p3f9c866967)" style="fill: none; stroke: #000000; stroke-width: 1.5; stroke-linecap: square"/>
   </g>
   <g id="line2d_36">
    <path d="M 70.249375 23.7 
L 71.144405 28.025318 
L 72.039434 39.781938 
L 73.829494 68.715806 
L 74.724523 77.220651 
L 75.619553 81.76898 
L 76.514582 84.616624 
L 77.409612 86.995186 
L 78.304642 89.695704 
L 81.88476 103.173692 
L 83.674819 108.767984 
L 86.359908 118.3159 
L 87.254938 120.438284 
L 89.044997 122.597865 
L 89.940027 124.935117 
L 91.730086 132.922196 
L 92.625116 135.029916 
L 93.520145 134.650904 
L 94.415175 133.094703 
L 95.310205 131.859122 
L 96.205234 131.739188 
L 97.100264 132.867406 
L 97.995293 134.498912 
L 98.890323 135.088825 
L 99.785353 133.828823 
L 100.680382 132.145364 
L 101.575412 132.588856 
L 102.470442 136.516349 
L 104.260501 149.232966 
L 105.155531 152.835638 
L 106.05056 153.749051 
L 107.840619 153.457231 
L 108.735649 152.569367 
L 109.630679 149.932594 
L 111.420738 141.796622 
L 112.315768 138.828941 
L 113.210797 136.896519 
L 114.105827 135.660504 
L 115.000856 135.268467 
L 115.895886 136.108873 
L 116.790916 138.312835 
L 117.685945 141.817516 
L 120.371034 155.835031 
L 121.266064 157.798815 
L 122.161093 157.726038 
L 123.951153 155.723105 
L 125.741212 153.257537 
L 126.636242 152.355025 
L 127.531271 152.042094 
L 128.426301 151.555506 
L 129.32133 149.390286 
L 130.21636 145.221615 
L 131.11139 141.600315 
L 132.006419 142.481502 
L 132.901449 149.812505 
L 133.796479 160.292653 
L 134.691508 165.185425 
L 135.586538 160.800798 
L 136.481567 154.686411 
L 137.376597 153.889267 
L 138.271627 159.554834 
L 140.061686 178.750468 
L 140.956716 182.495474 
L 141.851745 177.491248 
L 143.641805 158.942558 
L 144.536834 154.113865 
L 145.431864 152.785413 
L 146.326893 153.482853 
L 148.116953 156.147836 
L 149.011982 158.256382 
L 149.907012 162.859825 
L 150.802042 170.933224 
L 152.592101 190.33034 
L 154.38216 203.971768 
L 154.774506 208.1035 
M 244.851072 208.1035 
L 245.675182 205.824395 
L 246.570212 197.874655 
L 247.465241 186.769656 
L 248.360271 178.462935 
L 249.255301 176.548479 
L 250.15033 180.644448 
L 251.04536 186.971132 
L 251.94039 189.690721 
L 252.835419 185.075656 
L 253.730449 175.781392 
L 254.625478 167.961437 
L 255.520508 165.888615 
L 256.415538 170.123816 
L 257.310567 177.319962 
L 258.205597 181.444154 
L 259.100627 179.074775 
L 259.995656 173.223861 
L 260.890686 168.988005 
L 261.785715 169.124845 
L 263.575775 176.938758 
L 264.470804 175.364023 
L 265.365834 167.836987 
L 267.155893 149.890211 
L 268.050923 143.235037 
L 268.945952 139.814801 
L 269.840982 141.421308 
L 271.631041 154.33277 
L 272.526071 156.202351 
L 273.421101 154.423746 
L 274.31613 155.026386 
L 275.21116 161.943795 
L 277.896249 198.676769 
L 278.791278 202.609054 
L 279.686308 202.700282 
L 280.581338 201.309776 
L 281.476367 200.891947 
L 282.371397 204.54642 
L 282.71768 208.1035 
M 288.122462 208.1035 
L 288.636604 205.121883 
L 290.426664 192.03265 
L 291.321693 189.099934 
L 292.216723 191.605907 
L 293.111752 198.59016 
L 294.168876 208.1035 
M 299.814476 208.1035 
L 300.271989 203.109742 
L 301.167019 194.796527 
L 302.062049 191.696078 
L 302.957078 194.188171 
L 303.852108 199.369875 
L 304.747138 202.96505 
L 305.642167 203.299205 
L 306.537197 202.493331 
L 307.432226 202.998494 
L 308.327256 205.504715 
L 308.844208 208.1035 
M 314.446304 208.1035 
L 314.592464 205.761232 
L 315.487493 194.463799 
L 316.382523 188.410025 
L 317.277552 188.2116 
L 318.172582 194.066262 
L 319.365418 208.1035 
M 322.286793 208.1035 
L 322.64773 205.341 
L 323.54276 201.214238 
L 324.437789 198.93124 
L 325.332819 195.736058 
L 327.122878 186.093037 
L 328.017908 183.663834 
L 328.912938 183.883534 
L 329.807967 185.941276 
L 331.598026 192.857188 
L 332.493056 193.624678 
L 333.388086 188.149294 
L 334.283115 178.82182 
L 335.178145 172.220133 
L 336.073175 172.900019 
L 336.968204 181.602395 
L 338.58986 208.1035 
L 338.58986 208.1035 
" clip-path="url(#p3f9c866967)" style="fill: none; stroke: #ff0000; stroke-width: 1.5; stroke-linecap: square"/>
   </g>
   <g id="line2d_37">
    <path d="M 70.249375 23.7 
L 71.144405 28.020786 
L 72.039434 39.717917 
L 72.934464 54.906989 
L 73.829494 68.165533 
L 74.724523 76.276324 
L 75.619553 80.217233 
L 76.514582 82.235268 
L 77.409612 83.711962 
L 78.304642 85.501989 
L 79.199671 88.086085 
L 84.569849 107.073265 
L 86.359908 112.109437 
L 87.254938 115.494471 
L 88.149968 120.763366 
L 89.044997 127.385964 
L 89.940027 132.897286 
L 90.835056 135.501247 
L 91.730086 137.253446 
L 92.625116 142.328067 
L 93.520145 152.809301 
L 94.415175 166.196442 
L 95.310205 175.740722 
L 96.205234 176.891625 
L 97.100264 172.184342 
L 97.995293 164.888967 
L 99.785353 146.411109 
L 100.680382 140.154319 
L 101.575412 138.763709 
L 103.365471 143.32016 
L 104.260501 143.631857 
L 105.155531 143.021269 
L 106.05056 143.989611 
L 106.94559 147.787142 
L 107.840619 154.182098 
L 110.525708 178.050067 
L 111.420738 181.504792 
L 112.315768 181.774142 
L 113.210797 181.62932 
L 115.000856 184.108001 
L 115.895886 183.242499 
L 117.685945 176.544219 
L 118.580975 175.382143 
L 119.476005 177.077502 
L 120.371034 180.050303 
L 121.266064 180.980174 
L 122.161093 177.352312 
L 123.056123 170.688146 
L 123.951153 165.402286 
L 124.846182 164.919082 
L 125.741212 169.754202 
L 127.531271 184.23697 
L 128.426301 187.971248 
L 129.32133 189.464717 
L 130.21636 189.914028 
L 131.11139 189.413346 
L 132.006419 187.351588 
L 132.901449 182.845131 
L 135.586538 162.344555 
L 136.481567 159.808714 
L 137.376597 159.220424 
L 139.166656 158.449617 
L 140.061686 159.761884 
L 140.956716 163.556537 
L 144.536834 184.844493 
L 145.431864 190.757416 
L 146.326893 194.710341 
L 147.221923 196.185921 
L 148.116953 198.29497 
L 149.011982 205.451966 
L 149.166536 208.1035 
M 208.223464 208.1035 
L 209.873997 193.99323 
L 210.769027 187.966144 
L 211.664056 184.33889 
L 212.559086 182.852191 
L 213.454116 182.042322 
L 214.349145 179.962561 
L 215.244175 175.463047 
L 217.034234 163.045324 
L 217.929264 159.145991 
L 218.824293 158.123643 
L 219.719323 158.291472 
L 220.614353 156.099019 
L 221.509382 149.582738 
L 222.404412 141.090322 
L 223.299441 134.620915 
L 224.194471 132.45163 
L 225.089501 134.621647 
L 225.98453 139.635233 
L 226.87956 145.31942 
L 227.77459 150.02771 
L 229.564649 157.727092 
L 231.354708 167.414084 
L 232.249738 169.322747 
L 233.144767 167.319534 
L 234.934827 158.890997 
L 235.829856 155.888764 
L 236.724886 154.302806 
L 237.619915 154.110381 
L 238.514945 155.028911 
L 239.409975 156.621522 
L 240.305004 158.767099 
L 242.095064 163.97933 
L 242.990093 165.193729 
L 243.885123 164.957484 
L 244.780153 163.932213 
L 245.675182 162.090464 
L 247.465241 156.283696 
L 248.360271 155.829404 
L 249.255301 158.646653 
L 250.15033 162.76785 
L 251.04536 164.688568 
L 251.94039 163.032138 
L 252.835419 159.729777 
L 253.730449 157.054442 
L 254.625478 155.690944 
L 255.520508 155.051642 
L 256.415538 153.576067 
L 257.310567 149.240339 
L 259.100627 134.630057 
L 259.995656 131.092407 
L 260.890686 132.669988 
L 262.680745 142.66022 
L 263.575775 144.845229 
L 264.470804 144.808702 
L 265.365834 144.607963 
L 266.260864 145.257517 
L 267.155893 146.325241 
L 268.050923 146.930557 
L 268.945952 146.929668 
L 269.840982 147.518405 
L 270.736012 150.624039 
L 271.631041 157.421598 
L 273.421101 176.555579 
L 274.31613 183.164402 
L 275.21116 186.153347 
L 276.106189 185.489805 
L 277.001219 180.733143 
L 278.791278 166.227789 
L 279.686308 161.98776 
L 280.581338 160.232849 
L 281.476367 159.579253 
L 282.371397 159.708562 
L 283.266427 161.66101 
L 284.161456 166.131987 
L 286.846545 185.667546 
L 289.890938 208.1035 
M 297.905312 208.1035 
L 300.271989 179.641877 
L 301.167019 173.598819 
L 302.062049 171.768932 
L 302.957078 173.875208 
L 304.747138 182.504835 
L 305.642167 184.1072 
L 306.537197 183.818181 
L 307.432226 184.299547 
L 308.327256 187.76317 
L 309.222286 195.069117 
L 310.297435 208.1035 
M 314.226191 208.1035 
L 314.592464 205.92152 
L 315.487493 204.306897 
L 316.382523 203.348016 
L 317.277552 201.595149 
L 318.172582 201.615205 
L 319.067612 206.06862 
L 319.300963 208.1035 
M 322.84343 208.1035 
L 323.54276 199.850578 
L 324.437789 191.609511 
L 325.332819 187.542256 
L 326.227849 186.591289 
L 327.122878 185.980831 
L 328.017908 183.819774 
L 329.807967 177.914977 
L 331.598026 173.321609 
L 332.493056 169.582284 
L 333.388086 163.863636 
L 335.178145 148.851219 
L 336.073175 143.109032 
L 336.968204 140.240983 
L 337.863234 139.846566 
L 338.758263 140.643106 
L 338.758263 140.643106 
" clip-path="url(#p3f9c866967)" style="fill: none; stroke: #0000ff; stroke-width: 1.5; stroke-linecap: square"/>
   </g>
   <g id="patch_3">
    <path d="M 70.249375 169.176 
L 70.249375 23.7 
" style="fill: none; stroke: #000000; stroke-width: 0.8; stroke-linejoin: miter; stroke-linecap: square"/>
   </g>
   <g id="patch_4">
    <path d="M 338.758263 169.176 
L 338.758263 23.7 
" style="fill: none; stroke: #000000; stroke-width: 0.8; stroke-linejoin: miter; stroke-linecap: square"/>
   </g>
   <g id="patch_5">
    <path d="M 70.249375 169.176 
L 338.758263 169.176 
" style="fill: none; stroke: #000000; stroke-width: 0.8; stroke-linejoin: miter; stroke-linecap: square"/>
   </g>
   <g id="patch_6">
    <path d="M 70.249375 23.7 
L 338.758263 23.7 
" style="fill: none; stroke: #000000; stroke-width: 0.8; stroke-linejoin: miter; stroke-linecap: square"/>
   </g>
   <g id="text_16">
    <!-- $N=10, \alpha=0, J_z=1,\, J_{long}=1.0$ -->
    <g transform="translate(101.743819 17.7) scale(0.14 -0.14)">
     <defs>
      <path id="DejaVuSans-Oblique-4e" d="M 1081 4666 
L 1931 4666 
L 3219 666 
L 4000 4666 
L 4616 4666 
L 3706 0 
L 2853 0 
L 1569 4025 
L 788 0 
L 172 0 
L 1081 4666 
z
" transform="scale(0.015625)"/>
      <path id="DejaVuSans-3d" d="M 678 2906 
L 4684 2906 
L 4684 2381 
L 678 2381 
L 678 2906 
z
M 678 1631 
L 4684 1631 
L 4684 1100 
L 678 1100 
L 678 1631 
z
" transform="scale(0.015625)"/>
      <path id="DejaVuSans-2c" d="M 750 794 
L 1409 794 
L 1409 256 
L 897 -744 
L 494 -744 
L 750 256 
L 750 794 
z
" transform="scale(0.015625)"/>
      <path id="DejaVuSans-Oblique-3b1" d="M 2619 1628 
L 2622 2350 
Q 2625 3088 2069 3091 
Q 1653 3094 1394 2747 
Q 1069 2319 959 1747 
Q 825 1059 994 731 
Q 1169 397 1547 397 
Q 1966 397 2319 1063 
L 2619 1628 
z
M 2166 3578 
Q 3141 3594 3128 2584 
Q 3128 2584 3616 3500 
L 4128 3500 
L 3119 1603 
L 3109 919 
Q 3109 766 3194 638 
Q 3291 488 3391 488 
L 3669 488 
L 3575 0 
L 3228 0 
Q 2934 0 2722 263 
Q 2622 394 2619 669 
Q 2416 334 2066 50 
Q 1900 -81 1453 -78 
Q 722 -72 456 397 
Q 184 884 353 1747 
Q 534 2675 1009 3097 
Q 1544 3569 2166 3578 
z
" transform="scale(0.015625)"/>
      <path id="DejaVuSans-Oblique-4a" d="M 1069 4666 
L 1703 4666 
L 856 325 
Q 691 -522 298 -901 
Q -94 -1281 -800 -1281 
L -1050 -1281 
L -947 -750 
L -750 -750 
Q -328 -750 -109 -509 
Q 109 -269 225 325 
L 1069 4666 
z
" transform="scale(0.015625)"/>
      <path id="DejaVuSans-Oblique-7a" d="M 744 3500 
L 3475 3500 
L 3372 2975 
L 738 459 
L 2913 459 
L 2822 0 
L -19 0 
L 84 525 
L 2719 3041 
L 653 3041 
L 744 3500 
z
" transform="scale(0.015625)"/>
      <path id="DejaVuSans-Oblique-6c" d="M 1172 4863 
L 1747 4863 
L 800 0 
L 225 0 
L 1172 4863 
z
" transform="scale(0.015625)"/>
      <path id="DejaVuSans-Oblique-6f" d="M 1625 -91 
Q 1009 -91 651 289 
Q 294 669 294 1325 
Q 294 1706 417 2101 
Q 541 2497 738 2766 
Q 1047 3184 1428 3384 
Q 1809 3584 2291 3584 
Q 2888 3584 3255 3212 
Q 3622 2841 3622 2241 
Q 3622 1825 3500 1412 
Q 3378 1000 3181 728 
Q 2875 309 2494 109 
Q 2113 -91 1625 -91 
z
M 891 1344 
Q 891 869 1089 633 
Q 1288 397 1691 397 
Q 2269 397 2648 901 
Q 3028 1406 3028 2181 
Q 3028 2634 2825 2865 
Q 2622 3097 2228 3097 
Q 1903 3097 1650 2945 
Q 1397 2794 1197 2484 
Q 1050 2253 970 1956 
Q 891 1659 891 1344 
z
" transform="scale(0.015625)"/>
      <path id="DejaVuSans-Oblique-6e" d="M 3566 2113 
L 3156 0 
L 2578 0 
L 2988 2091 
Q 3016 2238 3031 2350 
Q 3047 2463 3047 2528 
Q 3047 2791 2881 2937 
Q 2716 3084 2419 3084 
Q 1956 3084 1622 2776 
Q 1288 2469 1184 1941 
L 800 0 
L 225 0 
L 903 3500 
L 1478 3500 
L 1363 2950 
Q 1603 3253 1940 3418 
Q 2278 3584 2650 3584 
Q 3113 3584 3367 3334 
Q 3622 3084 3622 2631 
Q 3622 2519 3608 2391 
Q 3594 2263 3566 2113 
z
" transform="scale(0.015625)"/>
      <path id="DejaVuSans-Oblique-67" d="M 3816 3500 
L 3219 434 
Q 3047 -456 2561 -893 
Q 2075 -1331 1253 -1331 
Q 950 -1331 690 -1286 
Q 431 -1241 206 -1147 
L 313 -588 
Q 525 -725 762 -790 
Q 1000 -856 1269 -856 
Q 1816 -856 2167 -557 
Q 2519 -259 2631 300 
L 2681 563 
Q 2441 288 2122 144 
Q 1803 0 1434 0 
Q 903 0 598 351 
Q 294 703 294 1319 
Q 294 1803 478 2267 
Q 663 2731 997 3091 
Q 1219 3328 1514 3456 
Q 1809 3584 2131 3584 
Q 2484 3584 2746 3420 
Q 3009 3256 3138 2956 
L 3238 3500 
L 3816 3500 
z
M 2950 2216 
Q 2950 2641 2750 2872 
Q 2550 3103 2181 3103 
Q 1953 3103 1747 3012 
Q 1541 2922 1394 2759 
Q 1156 2491 1023 2127 
Q 891 1763 891 1375 
Q 891 944 1092 712 
Q 1294 481 1672 481 
Q 2219 481 2584 976 
Q 2950 1472 2950 2216 
z
" transform="scale(0.015625)"/>
      <path id="DejaVuSans-2e" d="M 684 794 
L 1344 794 
L 1344 0 
L 684 0 
L 684 794 
z
" transform="scale(0.015625)"/>
     </defs>
     <use xlink:href="#DejaVuSans-Oblique-4e" transform="translate(0 0.78125)"/>
     <use xlink:href="#DejaVuSans-3d" transform="translate(94.287109 0.78125)"/>
     <use xlink:href="#DejaVuSans-31" transform="translate(197.558594 0.78125)"/>
     <use xlink:href="#DejaVuSans-30" transform="translate(261.181641 0.78125)"/>
     <use xlink:href="#DejaVuSans-2c" transform="translate(324.804688 0.78125)"/>
     <use xlink:href="#DejaVuSans-Oblique-3b1" transform="translate(376.074219 0.78125)"/>
     <use xlink:href="#DejaVuSans-3d" transform="translate(461.474609 0.78125)"/>
     <use xlink:href="#DejaVuSans-30" transform="translate(564.746094 0.78125)"/>
     <use xlink:href="#DejaVuSans-2c" transform="translate(628.369141 0.78125)"/>
     <use xlink:href="#DejaVuSans-Oblique-4a" transform="translate(679.638672 0.78125)"/>
     <use xlink:href="#DejaVuSans-Oblique-7a" transform="translate(709.130859 -15.625) scale(0.7)"/>
     <use xlink:href="#DejaVuSans-3d" transform="translate(768.09082 0.78125)"/>
     <use xlink:href="#DejaVuSans-31" transform="translate(871.362305 0.78125)"/>
     <use xlink:href="#DejaVuSans-2c" transform="translate(934.985352 0.78125)"/>
     <use xlink:href="#DejaVuSans-Oblique-4a" transform="translate(1002.490559 0.78125)"/>
     <use xlink:href="#DejaVuSans-Oblique-6c" transform="translate(1031.982747 -15.625) scale(0.7)"/>
     <use xlink:href="#DejaVuSans-Oblique-6f" transform="translate(1051.430989 -15.625) scale(0.7)"/>
     <use xlink:href="#DejaVuSans-Oblique-6e" transform="translate(1094.258137 -15.625) scale(0.7)"/>
     <use xlink:href="#DejaVuSans-Oblique-67" transform="translate(1138.623372 -15.625) scale(0.7)"/>
     <use xlink:href="#DejaVuSans-3d" transform="translate(1205.273762 0.78125)"/>
     <use xlink:href="#DejaVuSans-31" transform="translate(1308.545247 0.78125)"/>
     <use xlink:href="#DejaVuSans-2e" transform="translate(1372.168293 0.78125)"/>
     <use xlink:href="#DejaVuSans-30" transform="translate(1403.955403 0.78125)"/>
    </g>
   </g>
   <g id="legend_1">
    <g id="patch_7">
     <path d="M 77.949375 163.676 
L 141.639375 163.676 
Q 143.839375 163.676 143.839375 161.476 
L 143.839375 114.138187 
Q 143.839375 111.938187 141.639375 111.938187 
L 77.949375 111.938187 
Q 75.749375 111.938187 75.749375 114.138187 
L 75.749375 161.476 
Q 75.749375 163.676 77.949375 163.676 
z
" style="fill: #ffffff; opacity: 0.8; stroke: #cccccc; stroke-linejoin: miter"/>
    </g>
    <g id="line2d_38">
     <path d="M 80.149375 120.846469 
L 91.149375 120.846469 
L 102.149375 120.846469 
" style="fill: none; stroke: #000000; stroke-width: 1.5; stroke-linecap: square"/>
    </g>
    <g id="text_17">
     <!-- $(2;4)$ -->
     <g transform="translate(110.949375 124.696469) scale(0.11 -0.11)">
      <defs>
       <path id="DejaVuSans-28" d="M 1984 4856 
Q 1566 4138 1362 3434 
Q 1159 2731 1159 2009 
Q 1159 1288 1364 580 
Q 1569 -128 1984 -844 
L 1484 -844 
Q 1016 -109 783 600 
Q 550 1309 550 2009 
Q 550 2706 781 3412 
Q 1013 4119 1484 4856 
L 1984 4856 
z
" transform="scale(0.015625)"/>
       <path id="DejaVuSans-3b" d="M 750 3309 
L 1409 3309 
L 1409 2516 
L 750 2516 
L 750 3309 
z
M 750 794 
L 1409 794 
L 1409 256 
L 897 -744 
L 494 -744 
L 750 256 
L 750 794 
z
" transform="scale(0.015625)"/>
       <path id="DejaVuSans-29" d="M 513 4856 
L 1013 4856 
Q 1481 4119 1714 3412 
Q 1947 2706 1947 2009 
Q 1947 1309 1714 600 
Q 1481 -109 1013 -844 
L 513 -844 
Q 928 -128 1133 580 
Q 1338 1288 1338 2009 
Q 1338 2731 1133 3434 
Q 928 4138 513 4856 
z
" transform="scale(0.015625)"/>
      </defs>
      <use xlink:href="#DejaVuSans-28" transform="translate(0 0.125)"/>
      <use xlink:href="#DejaVuSans-32" transform="translate(39.013672 0.125)"/>
      <use xlink:href="#DejaVuSans-3b" transform="translate(102.636719 0.125)"/>
      <use xlink:href="#DejaVuSans-34" transform="translate(155.810547 0.125)"/>
      <use xlink:href="#DejaVuSans-29" transform="translate(219.433594 0.125)"/>
     </g>
    </g>
    <g id="line2d_39">
     <path d="M 80.149375 136.992406 
L 91.149375 136.992406 
L 102.149375 136.992406 
" style="fill: none; stroke: #ff0000; stroke-width: 1.5; stroke-linecap: square"/>
    </g>
    <g id="text_18">
     <!-- $(2;)$ -->
     <g transform="translate(110.949375 140.842406) scale(0.11 -0.11)">
      <use xlink:href="#DejaVuSans-28" transform="translate(0 0.125)"/>
      <use xlink:href="#DejaVuSans-32" transform="translate(39.013672 0.125)"/>
      <use xlink:href="#DejaVuSans-3b" transform="translate(102.636719 0.125)"/>
      <use xlink:href="#DejaVuSans-29" transform="translate(155.810547 0.125)"/>
     </g>
    </g>
    <g id="line2d_40">
     <path d="M 80.149375 153.138344 
L 91.149375 153.138344 
L 102.149375 153.138344 
" style="fill: none; stroke: #0000ff; stroke-width: 1.5; stroke-linecap: square"/>
    </g>
    <g id="text_19">
     <!-- $(4;)$ -->
     <g transform="translate(110.949375 156.988344) scale(0.11 -0.11)">
      <use xlink:href="#DejaVuSans-28" transform="translate(0 0.125)"/>
      <use xlink:href="#DejaVuSans-34" transform="translate(39.013672 0.125)"/>
      <use xlink:href="#DejaVuSans-3b" transform="translate(102.636719 0.125)"/>
      <use xlink:href="#DejaVuSans-29" transform="translate(155.810547 0.125)"/>
     </g>
    </g>
   </g>
  </g>
 </g>
 <defs>
  <clipPath id="p3f9c866967">
   <rect x="70.249375" y="23.7" width="268.508888" height="145.476"/>
  </clipPath>
 </defs>
</svg>
